<svg width="512" height="512" viewBox="0 0 512 512" fill="none" xmlns="http://www.w3.org/2000/svg">
<path d="M424.14 85.9688H85.4396C78.2102 85.9688 72.3496 91.8293 72.3496 99.0587V353.589C72.3496 360.818 78.2102 366.679 85.4396 366.679H424.14C431.369 366.679 437.23 360.818 437.23 353.589V99.0587C437.23 91.8293 431.369 85.9688 424.14 85.9688Z" fill="#40C2D6"/>
<path d="M429.37 133.719H285.25C279.97 133.719 276.19 127.879 277.76 122.119L296.17 54.1186C297.17 50.3686 300.22 47.8086 303.66 47.8086H429.36C433.69 47.8086 437.2 51.8086 437.2 56.8086V124.809C437.21 129.709 433.7 133.719 429.37 133.719Z" fill="#40C2D6"/>
<path d="M468.89 113.5H130.19C122.96 113.5 117.1 119.361 117.1 126.59V381.12C117.1 388.349 122.96 394.21 130.19 394.21H468.89C476.119 394.21 481.98 388.349 481.98 381.12V126.59C481.98 119.361 476.119 113.5 468.89 113.5Z" fill="#E73F46"/>
<path d="M474.12 161.248H330C324.72 161.248 320.95 155.408 322.51 149.638L340.92 81.6381C341.92 77.8881 344.98 75.3281 348.41 75.3281H474.11C478.44 75.3281 481.95 79.3281 481.95 84.3281V152.328C482 157.238 478.46 161.248 474.12 161.248Z" fill="#E73F46"/>
<path d="M267.91 206.387L292.78 154.197C293.296 153.107 294.108 152.184 295.122 151.532C296.137 150.88 297.314 150.525 298.52 150.508C299.726 150.492 300.912 150.814 301.945 151.437C302.977 152.061 303.814 152.962 304.36 154.037L330.66 205.527C331.137 206.458 331.833 207.26 332.688 207.862C333.543 208.465 334.532 208.851 335.57 208.987L392.89 216.517C394.092 216.668 395.228 217.154 396.167 217.92C397.106 218.686 397.811 219.7 398.201 220.847C398.591 221.994 398.65 223.228 398.372 224.407C398.095 225.587 397.491 226.664 396.63 227.517L355.79 268.437C355.047 269.176 354.497 270.085 354.187 271.086C353.876 272.086 353.816 273.148 354.01 274.177L364.56 330.997C364.78 332.182 364.665 333.406 364.226 334.529C363.788 335.652 363.043 336.63 362.078 337.353C361.112 338.075 359.964 338.512 358.762 338.615C357.561 338.719 356.355 338.484 355.28 337.937L303.74 311.737C302.807 311.265 301.774 311.026 300.729 311.042C299.683 311.057 298.658 311.327 297.74 311.827L246.94 339.427C245.881 340.001 244.683 340.267 243.48 340.196C242.278 340.125 241.119 339.719 240.136 339.024C239.152 338.33 238.382 337.374 237.912 336.264C237.443 335.155 237.293 333.937 237.48 332.747L246.48 275.637C246.641 274.602 246.549 273.544 246.211 272.553C245.873 271.562 245.299 270.668 244.54 269.947L202.54 230.167C201.661 229.336 201.033 228.275 200.727 227.105C200.422 225.934 200.451 224.702 200.811 223.547C201.172 222.392 201.849 221.362 202.767 220.574C203.684 219.785 204.804 219.27 206 219.087L263.09 209.987C264.124 209.82 265.103 209.406 265.942 208.779C266.781 208.152 267.457 207.331 267.91 206.387Z" fill="#EFBD42"/>
<path d="M282 285.316H317.08C318.053 285.316 319.016 285.508 319.915 285.88C320.814 286.253 321.631 286.799 322.319 287.487C323.007 288.175 323.553 288.992 323.926 289.891C324.298 290.79 324.49 291.753 324.49 292.726V295.456H274.6V292.726C274.6 290.763 275.379 288.88 276.766 287.49C278.154 286.101 280.036 285.319 282 285.316Z" fill="#F2F2F2"/>
<path d="M295.63 267.109H303.46V290.389H295.63V267.109Z" fill="#F2F2F2"/>
<path d="M299.54 269.479C293.238 269.471 287.196 266.964 282.74 262.508C278.284 258.052 275.777 252.011 275.77 245.709V239.999C275.77 239.37 276.019 238.768 276.464 238.323C276.908 237.879 277.511 237.629 278.14 237.629H320.94C321.566 237.629 322.168 237.877 322.612 238.32C323.056 238.762 323.307 239.362 323.31 239.989V245.729C323.296 252.027 320.787 258.063 316.332 262.515C311.876 266.967 305.838 269.471 299.54 269.479ZM280.54 242.339V245.709C280.54 250.756 282.544 255.596 286.113 259.165C289.682 262.734 294.522 264.739 299.57 264.739C304.617 264.739 309.457 262.734 313.026 259.165C316.595 255.596 318.6 250.756 318.6 245.709V242.349L280.54 242.339Z" fill="#F2F2F2"/>
<path d="M295 195.266H303.44C304.943 195.262 306.433 195.554 307.823 196.127C309.213 196.7 310.477 197.541 311.541 198.603C312.606 199.665 313.45 200.926 314.027 202.315C314.603 203.703 314.9 205.192 314.9 206.696V247.886C314.894 251.63 313.403 255.219 310.754 257.864C308.105 260.51 304.514 261.996 300.77 261.996H298.48C294.533 261.996 290.748 260.428 287.958 257.637C285.167 254.847 283.6 251.062 283.6 247.116V206.696C283.6 203.669 284.8 200.767 286.937 198.624C289.074 196.481 291.973 195.274 295 195.266Z" fill="#F2F2F2"/>
<mask id="mask0_77_271" style="mask-type:luminance" maskUnits="userSpaceOnUse" x="283" y="195" width="32" height="67">
<path d="M295 195.266H303.44C304.943 195.262 306.433 195.554 307.823 196.127C309.213 196.7 310.477 197.541 311.541 198.603C312.606 199.665 313.45 200.926 314.027 202.315C314.603 203.703 314.9 205.192 314.9 206.696V247.886C314.894 251.63 313.403 255.219 310.754 257.864C308.105 260.51 304.514 261.996 300.77 261.996H298.48C294.533 261.996 290.748 260.428 287.958 257.637C285.167 254.847 283.6 251.062 283.6 247.116V206.696C283.6 203.669 284.8 200.767 286.937 198.624C289.074 196.481 291.973 195.274 295 195.266Z" fill="white"/>
</mask>
<g mask="url(#mask0_77_271)">
<path d="M303.48 195.266H295.03C288.717 195.266 283.6 200.383 283.6 206.696V250.586C283.6 256.898 288.717 262.016 295.03 262.016H303.48C309.792 262.016 314.91 256.898 314.91 250.586V206.696C314.91 200.383 309.792 195.266 303.48 195.266Z" fill="#F2F2F2"/>
<path d="M282.13 236.938H316.86V267.098H282.13V236.938Z" fill="#F2F2F2"/>
</g>
<path d="M364.53 93.7476C364.53 93.7476 457.44 92.4676 463.28 94.4876C469.12 96.5076 462.62 199.158 462.62 199.158C462.62 199.158 452.46 107.678 450 104.648C447.54 101.618 364.53 93.7476 364.53 93.7476ZM447 367.088C447 368.978 406.1 370.488 355.65 370.458C305.2 370.428 264.29 368.878 264.29 366.988C264.29 365.098 305.19 363.588 355.65 363.618C406.11 363.648 447 365.198 447 367.088Z" fill="#F2F2F2"/>
<path d="M117.08 462.207C164.068 462.207 202.16 424.115 202.16 377.127C202.16 330.139 164.068 292.047 117.08 292.047C70.0916 292.047 32 330.139 32 377.127C32 424.115 70.0916 462.207 117.08 462.207Z" fill="#86EBF9"/>
<path d="M127.7 325.758H106.46C104.466 325.758 102.85 327.374 102.85 329.368V424.878C102.85 426.872 104.466 428.488 106.46 428.488H127.7C129.693 428.488 131.31 426.872 131.31 424.878V329.368C131.31 327.374 129.693 325.758 127.7 325.758Z" fill="#287EEF"/>
<path d="M65.71 366.509V387.749C65.71 389.743 67.3262 391.359 69.3199 391.359H164.83C166.824 391.359 168.44 389.743 168.44 387.749V366.509C168.44 364.516 166.824 362.899 164.83 362.899H69.3199C67.3262 362.899 65.71 364.516 65.71 366.509Z" fill="#287EEF"/>
<path d="M117.58 298.59C122.87 298.96 156.8 301.86 178.13 330.68C197.13 356.3 198.55 392.19 181.77 421.91C183.56 415.85 194.46 376.73 170.87 339.56C152.88 311.23 125.79 301.26 117.58 298.59Z" fill="#F2F2F2"/>
</svg>
