<svg width="512" height="512" viewBox="0 0 512 512" fill="none" xmlns="http://www.w3.org/2000/svg">
<path fill-rule="evenodd" clip-rule="evenodd" d="M291.111 83.1845C291.111 83.1845 279.317 44.7098 242.196 81.6376C205.073 118.76 70.3134 395.627 71.8604 423.856C73.4073 452.083 101.442 457.883 117.877 440.096C134.312 422.309 159.445 345.358 240.842 306.69C322.239 268.213 408.277 260.674 408.277 260.674C408.277 260.674 412.725 245.786 340.221 253.327C267.718 260.867 201.014 284.455 201.014 284.455C201.014 284.455 263.27 142.154 276.611 124.367C289.952 106.58 291.497 100.585 291.497 100.585V83.1845H291.111Z" fill="black" stroke="white" stroke-width="58.3789" stroke-miterlimit="10" stroke-linecap="round" stroke-linejoin="round"/>
<path fill-rule="evenodd" clip-rule="evenodd" d="M246.642 81.6376C246.642 81.6376 276.225 40.069 291.111 78.7369C305.999 117.213 320.692 215.045 365.162 326.217C409.631 437.39 439.212 447.637 439.212 447.637C439.212 447.637 371.156 460.977 338.481 416.507C305.806 372.04 253.99 132.101 253.99 132.101L246.642 81.6376ZM132.57 416.509C132.57 416.509 172.591 367.594 208.167 342.459C243.743 317.325 280.671 303.984 280.671 303.984C280.671 303.984 252.443 299.536 199.274 329.118C146.106 358.699 134.117 389.829 134.117 389.829L132.57 416.509Z" fill="black" stroke="white" stroke-width="58.3789" stroke-miterlimit="10" stroke-linecap="round" stroke-linejoin="round"/>
<path fill-rule="evenodd" clip-rule="evenodd" d="M291.111 83.1845C291.111 83.1845 279.317 44.7098 242.196 81.6376C205.073 118.76 70.3134 395.627 71.8604 423.856C73.4073 452.083 101.442 457.883 117.877 440.096C134.312 422.309 159.445 345.358 240.842 306.69C322.239 268.213 408.277 260.674 408.277 260.674C408.277 260.674 412.725 245.786 340.221 253.327C267.718 260.867 201.014 284.455 201.014 284.455C201.014 284.455 263.27 142.154 276.611 124.367C289.952 106.58 291.497 100.585 291.497 100.585V83.1845H291.111Z" fill="black"/>
<path fill-rule="evenodd" clip-rule="evenodd" d="M246.642 81.6376C246.642 81.6376 276.225 40.069 291.111 78.7369C305.999 117.213 320.692 215.045 365.162 326.217C409.631 437.39 439.212 447.637 439.212 447.637C439.212 447.637 371.156 460.977 338.481 416.507C305.806 372.04 253.99 132.101 253.99 132.101L246.642 81.6376ZM132.57 416.509C132.57 416.509 172.591 367.594 208.167 342.459C243.743 317.325 280.671 303.984 280.671 303.984C280.671 303.984 252.443 299.536 199.274 329.118C146.106 358.699 134.117 389.829 134.117 389.829L132.57 416.509Z" fill="black"/>
</svg>
