<svg width="512" height="512" viewBox="0 0 512 512" fill="none" xmlns="http://www.w3.org/2000/svg">
<path d="M306.478 254.106C306.478 228.886 285.97 208.374 260.758 208.374C235.538 208.374 215.022 228.886 215.022 254.106C215.022 279.326 235.538 299.838 260.758 299.838C285.97 299.838 306.478 279.326 306.478 254.106ZM134.582 154.33C133.246 152.992 131.659 151.931 129.912 151.208C128.165 150.484 126.293 150.111 124.402 150.111C122.512 150.111 120.639 150.484 118.893 151.208C117.146 151.931 115.559 152.992 114.222 154.33L20.8384 247.722C18.1381 250.422 16.6211 254.085 16.6211 257.904C16.6211 261.723 18.1381 265.385 20.8384 268.086L112.918 360.17C114.254 361.509 115.841 362.571 117.588 363.295C119.334 364.019 121.207 364.391 123.098 364.39C125.947 364.391 128.733 363.548 131.102 361.966C133.471 360.384 135.318 358.135 136.409 355.503C137.499 352.871 137.785 349.975 137.229 347.181C136.673 344.386 135.301 341.82 133.286 339.806L51.3864 257.902L134.582 174.694C137.283 171.993 138.8 168.331 138.8 164.512C138.8 160.693 137.283 157.03 134.582 154.33ZM491.166 245.226L397.774 151.838C395.074 149.137 391.411 147.619 387.592 147.619C383.772 147.618 380.109 149.135 377.408 151.836C374.707 154.536 373.19 158.199 373.189 162.018C373.189 165.838 374.706 169.501 377.406 172.202L460.618 255.41L378.714 337.31C376.086 340.024 374.63 343.663 374.66 347.442C374.69 351.221 376.204 354.836 378.876 357.508C381.548 360.18 385.163 361.695 388.941 361.726C392.72 361.757 396.359 360.302 399.074 357.674L491.166 265.59C493.862 262.89 495.386 259.226 495.386 255.41C495.386 251.594 493.862 247.926 491.166 245.226ZM267.79 19.5897C266.454 18.2523 264.867 17.1914 263.12 16.4675C261.373 15.7437 259.501 15.3711 257.61 15.3711C255.72 15.3711 253.847 15.7437 252.101 16.4675C250.354 17.1914 248.767 18.2523 247.43 19.5897L155.35 111.674C152.722 114.388 151.266 118.027 151.296 121.806C151.326 125.585 152.84 129.2 155.512 131.872C158.184 134.544 161.799 136.059 165.577 136.09C169.356 136.121 172.995 134.666 175.71 132.038L257.61 50.1417L340.822 133.342C343.634 136.154 347.314 137.562 351.002 137.562C354.69 137.562 358.378 136.154 361.182 133.342C363.883 130.641 365.4 126.979 365.4 123.16C365.4 119.341 363.883 115.678 361.182 112.978L267.79 19.5897ZM340.822 378.662L257.61 461.866L175.714 379.966C172.999 377.338 169.36 375.882 165.581 375.913C161.803 375.944 158.188 377.459 155.516 380.131C152.844 382.804 151.33 386.419 151.3 390.197C151.27 393.976 152.726 397.615 155.354 400.33L247.434 492.414C248.77 493.753 250.357 494.815 252.103 495.539C253.85 496.263 255.723 496.635 257.614 496.634C261.302 496.634 264.99 495.226 267.794 492.414L361.186 399.026C362.541 397.693 363.619 396.104 364.357 394.353C365.095 392.601 365.479 390.72 365.487 388.819C365.495 386.919 365.126 385.035 364.402 383.277C363.679 381.52 362.614 379.923 361.27 378.578C359.926 377.234 358.329 376.17 356.571 375.446C354.813 374.722 352.93 374.353 351.029 374.361C349.128 374.369 347.247 374.753 345.496 375.491C343.744 376.229 342.156 377.307 340.822 378.662Z" fill="#231F20"/>
</svg>
