<svg width="512" height="512" viewBox="0 0 512 512" fill="none" xmlns="http://www.w3.org/2000/svg">
<g clip-path="url(#clip0_76_217)">
<path d="M256 0C114.617 0 0 114.617 0 256C0 397.383 114.617 512 256 512C397.383 512 512 397.383 512 256C511.842 114.684 397.316 0.157867 256 0ZM256 494.933C124.043 494.933 17.0667 387.957 17.0667 256C17.0667 124.043 124.043 17.0667 256 17.0667C387.957 17.0667 494.933 124.043 494.933 256C494.784 387.895 387.895 494.784 256 494.933Z" fill="black"/>
<path d="M256 213.332C232.437 213.332 213.333 232.436 213.333 255.999C213.333 279.561 232.437 298.665 256 298.665C279.562 298.665 298.666 279.561 298.666 255.999C298.638 232.445 279.554 213.361 256 213.332ZM256 281.599C241.862 281.599 230.4 270.136 230.4 255.999C230.4 241.861 241.862 230.399 256 230.399C270.137 230.399 281.6 241.861 281.6 255.999C281.6 270.136 270.137 281.599 256 281.599ZM153.6 213.332C130.037 213.332 110.933 232.436 110.933 255.999C110.933 279.561 130.037 298.665 153.6 298.665C177.162 298.665 196.266 279.561 196.266 255.999C196.238 232.445 177.154 213.361 153.6 213.332ZM153.6 281.599C139.462 281.599 128 270.136 128 255.999C128 241.861 139.462 230.399 153.6 230.399C167.737 230.399 179.2 241.861 179.2 255.999C179.2 270.136 167.737 281.599 153.6 281.599ZM358.4 213.332C334.837 213.332 315.733 232.436 315.733 255.999C315.733 279.561 334.837 298.665 358.4 298.665C381.962 298.665 401.066 279.561 401.066 255.999C401.038 232.445 381.954 213.361 358.4 213.332ZM358.4 281.599C344.262 281.599 332.8 270.136 332.8 255.999C332.8 241.861 344.262 230.399 358.4 230.399C372.537 230.399 384 241.861 384 255.999C384 270.136 372.537 281.599 358.4 281.599Z" fill="black"/>
</g>
<defs>
<clipPath id="clip0_76_217">
<rect width="512" height="512" fill="white"/>
</clipPath>
</defs>
</svg>
