<svg width="512" height="512" viewBox="0 0 512 512" fill="none" xmlns="http://www.w3.org/2000/svg">
<g clip-path="url(#clip0_76_211)">
<path d="M349.109 321.085C348.342 318.957 346.761 317.221 344.714 316.258C342.667 315.295 340.321 315.185 338.193 315.952C337.111 316.342 336.12 316.946 335.278 317.729C334.436 318.511 333.761 319.455 333.294 320.505C332.826 321.555 332.575 322.689 332.556 323.838C332.538 324.987 332.751 326.128 333.185 327.193C340.964 347.494 341.527 363.019 334.72 369.843C326.463 378.083 305.897 375.507 279.693 362.967C244.611 344.751 212.722 320.955 185.274 292.51C118.459 225.686 90.8896 160.115 107.941 143.064C110.629 140.941 113.751 139.438 117.086 138.659C120.421 137.881 123.886 137.847 127.236 138.56C129.457 138.723 131.654 138.011 133.357 136.576C135.061 135.141 136.135 133.097 136.351 130.881C136.567 128.664 135.908 126.451 134.514 124.714C133.12 122.977 131.102 121.854 128.891 121.585C123.037 120.549 117.025 120.856 111.306 122.481C105.588 124.106 100.313 127.008 95.8796 130.968C64.6257 162.214 112.402 243.718 173.213 304.537C202.024 334.352 235.502 359.271 272.331 378.313C279.001 381.507 285.874 384.256 292.906 386.544L232.3 409.524C151.372 378.757 93.1127 307.011 79.6129 221.489C79.2443 219.27 78.0143 217.286 76.1906 215.97C74.3669 214.653 72.0971 214.11 69.875 214.459C67.6528 214.807 65.6583 216.019 64.3254 217.831C62.9925 219.643 62.429 221.908 62.7576 224.133C64.0968 232.663 65.8881 241.193 68.0803 249.535C77.7824 286.296 95.4607 320.469 119.859 349.626C144.258 378.783 174.778 402.21 209.252 418.242L109.502 455.987C109.045 455.224 108.469 454.539 107.796 453.957C95.2513 443.885 84.8819 431.372 77.3161 417.174C69.7503 402.976 65.1457 387.391 63.7812 371.361L59.8233 323.431C59.7492 322.327 59.4583 321.248 58.9672 320.256C58.4761 319.264 57.7945 318.379 56.9612 317.65C56.1279 316.922 55.1593 316.365 54.1107 316.01C53.0621 315.656 51.954 315.512 50.8497 315.586C50.7612 315.593 50.6727 315.599 50.5853 315.609C49.4637 315.698 48.3709 316.008 47.3697 316.522C46.3685 317.035 45.4787 317.741 44.7517 318.6C44.0246 319.459 43.4747 320.453 43.1334 321.525C42.7921 322.597 42.6663 323.726 42.7633 324.847L46.7894 372.76C49.7879 407.384 65.9391 439.543 91.9217 462.624L20.7644 489.561L33.5594 437.051C33.825 435.962 33.8735 434.831 33.7021 433.724C33.5308 432.616 33.143 431.553 32.5608 430.596C31.9786 429.638 31.2134 428.804 30.309 428.142C29.4046 427.48 28.3787 427.003 27.2898 426.738C26.201 426.472 25.0705 426.424 23.963 426.595C22.8554 426.766 21.7924 427.154 20.8348 427.736C19.8771 428.319 19.0435 429.084 18.3816 429.988C17.7197 430.893 17.2424 431.919 16.977 433.007L0.334993 501.247C-0.0354951 502.758 0.0139016 504.34 0.477842 505.824C0.941782 507.309 1.80261 508.638 2.96724 509.668C4.13188 510.698 5.556 511.39 7.08561 511.67C8.61522 511.949 10.1921 511.805 11.6458 511.253L327.256 391.833C327.758 391.588 328.233 391.29 328.672 390.946C335.503 389.897 341.835 386.738 346.781 381.913C355.234 373.459 362.51 356.033 349.109 321.085Z" fill="black"/>
<path d="M429.606 299.088C383.494 281.825 333.654 276.987 285.083 285.057L254.605 290.175C252.418 290.595 250.482 291.854 249.211 293.682C247.94 295.51 247.434 297.763 247.802 299.959C248.169 302.155 249.381 304.121 251.178 305.436C252.975 306.75 255.215 307.31 257.42 306.996L287.889 301.92C333.506 294.337 380.315 298.884 423.618 315.108C424.58 315.448 425.593 315.618 426.612 315.611C428.613 315.614 430.552 314.914 432.089 313.633C433.626 312.352 434.663 310.571 435.02 308.602C435.377 306.633 435.03 304.602 434.04 302.862C433.051 301.123 431.481 299.787 429.606 299.088ZM459.931 166.933C459.449 165.921 458.773 165.015 457.941 164.264C457.109 163.514 456.137 162.935 455.081 162.56C454.025 162.186 452.906 162.023 451.787 162.081C450.668 162.139 449.572 162.416 448.56 162.898L269.43 248.198C268.418 248.68 267.511 249.356 266.761 250.188C266.011 251.02 265.432 251.992 265.057 253.048C264.683 254.104 264.52 255.223 264.578 256.342C264.636 257.461 264.913 258.557 265.395 259.569C265.877 260.58 266.553 261.487 267.385 262.237C268.216 262.988 269.188 263.567 270.244 263.941C271.299 264.316 272.418 264.479 273.537 264.421C274.656 264.364 275.752 264.086 276.764 263.605L276.766 263.604L455.896 178.304C456.908 177.822 457.814 177.146 458.565 176.314C459.315 175.482 459.894 174.51 460.269 173.454C460.643 172.398 460.806 171.279 460.748 170.16C460.69 169.041 460.413 167.945 459.931 166.933ZM207.255 57.8939C207.029 56.7833 206.584 55.7288 205.946 54.792C205.309 53.8552 204.491 53.0548 203.54 52.4378C202.589 51.8207 201.525 51.3993 200.41 51.198C199.295 50.9968 198.151 51.0199 197.044 51.2658C195.938 51.5118 194.892 51.9758 193.967 52.6306C193.042 53.2855 192.257 54.1181 191.657 55.0798C191.057 56.0415 190.656 57.1131 190.475 58.2319C190.294 59.3507 190.338 60.4943 190.604 61.5959C201.401 109.832 196.951 160.232 177.869 205.83L165.466 235.591C164.605 237.674 164.604 240.013 165.462 242.098C166.32 244.182 167.969 245.842 170.047 246.714C172.134 247.583 174.48 247.587 176.571 246.727C178.661 245.866 180.325 244.211 181.196 242.125L193.607 212.398C214.052 163.554 218.821 109.566 207.255 57.8939ZM469.263 307.081C455.129 307.081 443.672 318.538 443.672 332.671C443.672 346.804 455.129 358.261 469.263 358.261C483.396 358.261 494.853 346.804 494.853 332.671C494.853 318.538 483.396 307.081 469.263 307.081ZM469.263 341.201C467 341.201 464.831 340.302 463.231 338.703C461.631 337.103 460.733 334.933 460.733 332.671C460.733 330.409 461.631 328.239 463.231 326.639C464.831 325.04 467 324.141 469.263 324.141C471.525 324.141 473.694 325.04 475.294 326.639C476.894 328.239 477.793 330.409 477.793 332.671C477.793 334.933 476.894 337.103 475.294 338.703C473.694 340.302 471.525 341.201 469.263 341.201ZM264.542 68.2408C250.409 68.2408 238.952 79.6977 238.952 93.8308C238.952 107.964 250.409 119.421 264.542 119.421C278.675 119.421 290.132 107.964 290.132 93.8308C290.132 79.6977 278.675 68.2408 264.542 68.2408ZM264.542 102.361C262.28 102.361 260.11 101.462 258.511 99.8625C256.911 98.2628 256.012 96.0931 256.012 93.8308C256.012 91.5685 256.911 89.3989 258.511 87.7992C260.11 86.1995 262.28 85.3008 264.542 85.3008C266.805 85.3008 268.974 86.1995 270.574 87.7992C272.174 89.3989 273.072 91.5685 273.072 93.8308C273.072 96.0931 272.174 98.2628 270.574 99.8625C268.974 101.462 266.805 102.361 264.542 102.361Z" fill="black"/>
<path d="M187.772 34.12C197.194 34.12 204.832 26.482 204.832 17.06C204.832 7.63803 197.194 0 187.772 0C178.35 0 170.712 7.63803 170.712 17.06C170.712 26.482 178.35 34.12 187.772 34.12Z" fill="black"/>
<path d="M426.613 42.6501C424.35 42.6501 422.181 43.5487 420.581 45.1484C418.981 46.7481 418.083 48.9178 418.083 51.1801V59.7101C418.083 61.9724 418.981 64.142 420.581 65.7417C422.181 67.3414 424.35 68.2401 426.613 68.2401C428.875 68.2401 431.045 67.3414 432.644 65.7417C434.244 64.142 435.143 61.9724 435.143 59.7101V51.1801C435.143 48.9178 434.244 46.7481 432.644 45.1484C431.045 43.5487 428.875 42.6501 426.613 42.6501ZM426.613 0C424.35 0 422.181 0.898695 420.581 2.49838C418.981 4.09807 418.083 6.26771 418.083 8.53001V17.06C418.083 19.3223 418.981 21.492 420.581 23.0916C422.181 24.6913 424.35 25.59 426.613 25.59C428.875 25.59 431.045 24.6913 432.644 23.0916C434.244 21.492 435.143 19.3223 435.143 17.06V8.53001C435.143 6.26771 434.244 4.09807 432.644 2.49838C431.045 0.898695 428.875 0 426.613 0ZM452.203 25.59H443.673C441.411 25.59 439.241 26.4887 437.641 28.0884C436.041 29.6881 435.143 31.8577 435.143 34.12C435.143 36.3823 436.041 38.552 437.641 40.1517C439.241 41.7514 441.411 42.6501 443.673 42.6501H452.203C454.465 42.6501 456.635 41.7514 458.234 40.1517C459.834 38.552 460.733 36.3823 460.733 34.12C460.733 31.8577 459.834 29.6881 458.234 28.0884C456.635 26.4887 454.465 25.59 452.203 25.59ZM409.553 25.59H401.023C398.76 25.59 396.591 26.4887 394.991 28.0884C393.391 29.6881 392.493 31.8577 392.493 34.12C392.493 36.3823 393.391 38.552 394.991 40.1517C396.591 41.7514 398.76 42.6501 401.023 42.6501H409.553C411.815 42.6501 413.985 41.7514 415.584 40.1517C417.184 38.552 418.083 36.3823 418.083 34.12C418.083 31.8577 417.184 29.6881 415.584 28.0884C413.985 26.4887 411.815 25.59 409.553 25.59ZM366.903 93.651H324.074C321.811 93.651 319.642 94.5497 318.042 96.1494C316.442 97.7491 315.544 99.9187 315.544 102.181V145.01C315.544 147.272 316.442 149.442 318.042 151.042C319.642 152.641 321.811 153.54 324.074 153.54H366.903C369.165 153.54 371.335 152.641 372.934 151.042C374.534 149.442 375.433 147.272 375.433 145.01V102.181C375.433 99.9187 374.534 97.7491 372.934 96.1494C371.335 94.5497 369.165 93.651 366.903 93.651ZM358.373 136.48H332.604V110.711H358.373V136.48ZM304.763 164.881C303.256 163.272 301.185 162.31 298.984 162.194C296.783 162.079 294.623 162.82 292.956 164.262L207.656 241.032C205.975 242.546 204.965 244.665 204.847 246.924C204.728 249.183 205.512 251.396 207.025 253.077C208.538 254.757 210.658 255.768 212.916 255.886C215.175 256.005 217.388 255.221 219.069 253.708L304.369 176.938C305.187 176.172 305.845 175.253 306.308 174.232C306.77 173.212 307.027 172.111 307.063 170.991C307.1 169.871 306.915 168.755 306.521 167.707C306.126 166.659 305.529 165.698 304.763 164.881ZM460.733 196.19C458.471 196.19 456.301 197.089 454.701 198.689C453.101 200.288 452.203 202.458 452.203 204.72V213.25C452.203 215.513 453.101 217.682 454.701 219.282C456.301 220.882 458.471 221.78 460.733 221.78C462.995 221.78 465.165 220.882 466.764 219.282C468.364 217.682 469.263 215.513 469.263 213.25V204.72C469.263 202.458 468.364 200.288 466.764 198.689C465.165 197.089 462.995 196.19 460.733 196.19ZM496.926 194.723L490.895 188.692C489.286 187.139 487.131 186.279 484.895 186.298C482.658 186.318 480.519 187.215 478.937 188.796C477.356 190.378 476.459 192.517 476.439 194.754C476.42 196.99 477.28 199.145 478.833 200.754L484.864 206.785C486.491 208.356 488.676 209.217 490.938 209.178C493.2 209.139 495.354 208.203 496.926 206.576C498.462 204.985 499.32 202.86 499.32 200.649C499.32 198.438 498.462 196.313 496.926 194.723ZM503.383 162.07H494.853C492.591 162.07 490.421 162.969 488.821 164.569C487.222 166.168 486.323 168.338 486.323 170.6C486.323 172.863 487.222 175.032 488.821 176.632C490.421 178.232 492.591 179.13 494.853 179.13H503.383C505.645 179.13 507.815 178.232 509.414 176.632C511.014 175.032 511.913 172.863 511.913 170.6C511.913 168.338 511.014 166.168 509.414 164.569C507.815 162.969 505.645 162.07 503.383 162.07ZM496.717 134.416C495.126 132.88 493.001 132.022 490.79 132.022C488.579 132.022 486.455 132.88 484.864 134.416L478.833 140.447C477.641 141.64 476.829 143.159 476.5 144.814C476.171 146.468 476.34 148.183 476.985 149.741C477.631 151.3 478.724 152.632 480.126 153.569C481.529 154.507 483.177 155.007 484.864 155.007C487.126 155.007 489.296 154.108 490.895 152.508L496.926 146.477C498.497 144.85 499.358 142.665 499.319 140.403C499.28 138.141 498.344 135.988 496.717 134.416ZM460.733 119.42C458.471 119.42 456.301 120.319 454.701 121.919C453.101 123.518 452.203 125.688 452.203 127.95V136.48C452.203 138.742 453.101 140.912 454.701 142.512C456.301 144.111 458.471 145.01 460.733 145.01C462.995 145.01 465.165 144.111 466.764 142.512C468.364 140.912 469.263 138.742 469.263 136.48V127.95C469.263 125.688 468.364 123.518 466.764 121.919C465.165 120.319 462.995 119.42 460.733 119.42ZM442.632 140.447L436.601 134.416C434.993 132.862 432.838 132.002 430.601 132.022C428.365 132.041 426.225 132.938 424.644 134.52C423.062 136.101 422.165 138.241 422.146 140.477C422.126 142.714 422.986 144.869 424.54 146.477L430.571 152.508C432.198 154.08 434.383 154.941 436.645 154.902C438.907 154.862 441.06 153.926 442.632 152.299C444.168 150.709 445.027 148.584 445.027 146.373C445.027 144.162 444.168 142.037 442.632 140.447ZM102.054 36.8838C101.562 35.3713 100.656 34.0266 99.44 33.0016C98.2236 31.9766 96.7448 31.3122 95.1707 31.0834L70.1351 27.441L58.9693 4.75975C58.1849 3.42785 57.0664 2.32378 55.7245 1.55672C54.3825 0.789658 52.8636 0.386176 51.3179 0.386176C49.7722 0.386176 48.2533 0.789658 46.9113 1.55672C45.5694 2.32378 44.4509 3.42785 43.6665 4.75975L32.4495 27.441L7.41394 31.0834C5.83879 31.3107 4.35866 31.9742 3.14088 32.9988C1.92311 34.0234 1.01625 35.3682 0.522845 36.8813C0.0294383 38.3944 -0.0308415 40.0153 0.348821 41.5608C0.728483 43.1063 1.53294 44.5148 2.67126 45.627L20.7805 63.2841L16.5155 88.2174C16.2378 89.7898 16.4072 91.4086 17.0041 92.8895C17.6011 94.3705 18.6017 95.6541 19.8922 96.5944C21.1827 97.5348 22.7112 98.094 24.3039 98.2085C25.8965 98.323 27.4893 97.9882 28.901 97.2421L51.2923 85.4366L73.6836 97.208C75.0923 97.9486 76.6801 98.2804 78.2675 98.1658C79.8549 98.0511 81.3786 97.4947 82.6663 96.5593C83.954 95.624 84.9543 94.347 85.5541 92.8728C86.154 91.3986 86.3294 89.786 86.0606 88.2174L81.7956 63.2841L99.9134 45.627C101.05 44.5144 101.853 43.1059 102.231 41.5609C102.61 40.0159 102.548 38.3958 102.054 36.8838ZM66.6463 54.1997C65.6569 55.1637 64.9163 56.3536 64.4884 57.6671C64.0605 58.9806 63.958 60.3783 64.1897 61.7402L66.3051 74.0661L55.2588 68.2401C54.0353 67.5977 52.6742 67.2621 51.2923 67.2621C49.9105 67.2621 48.5493 67.5977 47.3259 68.2401L36.2368 74.0576L38.3523 61.7317C38.5881 60.3746 38.4917 58.9806 38.0713 57.6689C37.6509 56.3572 36.919 55.1669 35.9383 54.1997L26.9733 45.4735L39.3503 43.6737C40.719 43.4751 42.0189 42.9466 43.1379 42.1337C44.2569 41.3208 45.1614 40.248 45.7734 39.0077L51.2923 27.8078L56.8198 39.0077C57.4311 40.2468 58.3343 41.3189 59.4517 42.1317C60.5691 42.9444 61.8672 43.4736 63.2343 43.6737L75.6028 45.4735L66.6463 54.1997ZM483.098 427.567H483.064L479.55 422.295C469.8 407.715 457.173 395.281 442.445 385.757C427.716 376.233 411.197 369.819 393.9 366.91C391.696 366.595 389.456 367.155 387.659 368.47C385.861 369.785 384.65 371.75 384.282 373.946C383.915 376.143 384.42 378.396 385.692 380.224C386.963 382.052 388.899 383.311 391.085 383.731C416.3 388.011 439.279 400.821 456.178 420.018C449.154 421.281 442.48 424.024 436.597 428.063C430.715 432.103 425.759 437.348 422.058 443.45C412.871 459.903 418.762 480.687 435.215 489.874C451.669 499.061 472.453 493.17 481.64 476.717C485.149 469.942 487.044 462.448 487.176 454.82C491.623 461.28 494.158 468.863 494.489 476.699C494.819 484.535 492.932 492.305 489.044 499.116C488.463 500.096 488.084 501.183 487.929 502.311C487.775 503.44 487.848 504.588 488.144 505.688C488.441 506.788 488.955 507.817 489.656 508.716C490.356 509.614 491.23 510.362 492.225 510.917C493.22 511.472 494.316 511.822 495.448 511.947C496.581 512.071 497.726 511.968 498.818 511.642C499.91 511.317 500.925 510.776 501.804 510.051C502.684 509.327 503.409 508.434 503.937 507.425C519.556 479.527 510.356 444.276 483.098 427.567ZM466.764 468.391C462.211 476.641 451.833 479.637 443.584 475.084C435.336 470.531 432.339 460.154 436.891 451.905L436.968 451.766C439.453 447.697 442.818 444.235 446.815 441.634C450.812 439.033 455.34 437.36 460.067 436.737C461.55 436.696 463.019 437.037 464.332 437.726C471.532 441.744 471.916 459.162 466.764 468.391Z" fill="black"/>
</g>
<defs>
<clipPath id="clip0_76_211">
<rect width="512" height="512" fill="white"/>
</clipPath>
</defs>
</svg>
