<svg width="512" height="512" viewBox="0 0 512 512" fill="none" xmlns="http://www.w3.org/2000/svg">
<g clip-path="url(#clip0_76_148)">
<path d="M502.076 102.896H468.333V91.3838C468.421 89.1693 467.765 86.9889 466.47 85.1903C465.175 83.3916 463.315 82.0782 461.187 81.4594C437.83 75.3385 413.778 72.2695 389.632 72.329C349.934 72.329 295.846 81.2609 255.851 121.951C216.154 80.864 161.669 72.329 122.07 72.329C97.9243 72.2695 73.8725 75.3385 50.5152 81.4594C48.387 82.0782 46.5272 83.3916 45.2322 85.1903C43.9372 86.9889 43.2815 89.1693 43.3696 91.3838V102.797H9.9244C7.29229 102.797 4.76798 103.842 2.90679 105.704C1.0456 107.565 0 110.089 0 112.721L0 429.707C0 432.339 1.0456 434.863 2.90679 436.724C4.76798 438.586 7.29229 439.631 9.9244 439.631C11.6293 439.626 13.3042 439.182 14.7874 438.341C15.7798 437.845 115.024 383.558 253.569 418.492H255.95C256.741 418.588 257.541 418.588 258.332 418.492C397.274 383.261 496.518 437.448 497.113 438.341C498.618 439.21 500.324 439.668 502.061 439.671C503.798 439.673 505.505 439.22 507.012 438.356C508.519 437.492 509.773 436.248 510.648 434.747C511.523 433.247 511.99 431.543 512 429.806V112.821C512 110.188 510.954 107.664 509.093 105.803C507.232 103.942 504.708 102.896 502.076 102.896ZM19.8488 413.927V122.745H43.5681V371.649C43.5518 373.088 43.8485 374.513 44.4376 375.825C45.0267 377.138 45.8941 378.306 46.9797 379.25C48.0653 380.194 49.3432 380.891 50.7249 381.292C52.1065 381.693 53.5588 381.789 54.9812 381.573C75.5118 378.438 96.2408 376.78 117.009 376.611C145.777 376.112 174.426 380.44 201.763 389.414C140.027 381.948 77.4069 390.386 19.8488 413.927ZM117.009 356.862C98.958 356.902 80.9271 358.063 63.02 360.335V99.2241C82.3426 94.919 102.075 92.7228 121.872 92.674C158.989 92.674 210.199 101.209 245.728 141.304L246.026 388.52C225.383 375.023 185.09 356.862 117.009 356.862ZM265.875 141.304C301.404 101.606 352.614 92.674 389.731 92.674C409.527 92.7322 429.259 94.9283 448.583 99.2241V360.335C430.777 358.041 412.845 356.848 394.892 356.762C327.208 356.762 286.815 374.924 265.875 388.421V141.304ZM492.052 413.927C434.372 390.322 371.607 381.882 309.741 389.414C337.207 380.407 365.992 376.079 394.892 376.611C415.79 376.728 436.653 378.353 457.317 381.474C458.739 381.69 460.191 381.594 461.573 381.193C462.954 380.792 464.232 380.095 465.318 379.151C466.404 378.207 467.271 377.038 467.86 375.726C468.449 374.413 468.746 372.988 468.73 371.55V122.745H492.449L492.052 413.927Z" fill="black"/>
</g>
<defs>
<clipPath id="clip0_76_148">
<rect width="512" height="512" fill="white"/>
</clipPath>
</defs>
</svg>
