<svg width="512" height="512" viewBox="0 0 512 512" fill="none" xmlns="http://www.w3.org/2000/svg">
<g clip-path="url(#clip0_76_130)">
<path d="M147.524 218.707H477.008C481.6 218.705 486.148 219.612 490.389 221.374C494.63 223.136 498.481 225.719 501.72 228.975V229.035C504.971 232.266 507.552 236.106 509.314 240.337C511.077 244.567 511.987 249.104 511.992 253.687V477.011C511.992 486.611 508.048 495.387 501.72 501.715C498.482 504.973 494.632 507.558 490.39 509.321C486.149 511.084 481.601 511.99 477.008 511.987H147.524C142.932 511.984 138.386 511.076 134.146 509.313C129.907 507.55 126.056 504.968 122.816 501.715C119.559 498.478 116.975 494.629 115.212 490.389C113.449 486.149 112.543 481.603 112.544 477.011V253.687C112.544 244.083 116.484 235.307 122.816 228.975C126.058 225.724 129.908 223.144 134.148 221.382C138.388 219.62 142.933 218.711 147.524 218.707ZM477.008 234.699H147.524C145.034 234.705 142.571 235.204 140.275 236.165C137.978 237.127 135.895 238.533 134.144 240.303C132.373 242.054 130.966 244.138 130.004 246.435C129.041 248.732 128.542 251.197 128.536 253.687V477.011C128.536 482.231 130.7 487.003 134.144 490.447C135.898 492.208 137.983 493.606 140.28 494.558C142.576 495.51 145.038 495.998 147.524 495.995H477.008C479.502 495.999 481.973 495.51 484.278 494.558C486.584 493.606 488.679 492.209 490.444 490.447C492.207 488.682 493.605 486.587 494.559 484.282C495.512 481.976 496.002 479.506 496 477.011V253.687C496.003 251.192 495.514 248.721 494.56 246.416C493.607 244.11 492.208 242.015 490.444 240.251V240.307C486.886 236.731 482.053 234.714 477.008 234.699Z" fill="black"/>
<path d="M245.472 152.023H379.12C386.728 152.023 393.72 155.131 398.72 160.183C403.716 165.235 406.884 172.179 406.884 179.783V234.695H357.136V200.719H267.46V234.699H217.708V179.783C217.708 176.138 218.426 172.527 219.822 169.159C221.217 165.791 223.262 162.731 225.84 160.153C228.418 157.575 231.479 155.53 234.847 154.135C238.216 152.741 241.826 152.023 245.472 152.023ZM379.116 168.015H245.472C242.248 168.015 239.308 169.343 237.14 171.511C234.945 173.705 233.709 176.68 233.704 179.783V218.703H251.468V184.727H373.128V218.707H390.892V179.787C390.892 176.563 389.56 173.623 387.452 171.515H387.392C386.317 170.408 385.031 169.527 383.609 168.926C382.187 168.325 380.66 168.015 379.116 168.015Z" fill="black"/>
<path d="M88.336 433.98C92.724 433.98 96.332 437.528 96.332 441.972C96.3215 444.089 95.4755 446.116 93.9782 447.613C92.4808 449.11 90.4531 449.955 88.336 449.964H23.988C17.436 449.964 11.44 447.244 7.052 442.916V442.86C4.81989 440.64 3.04797 438.001 1.83783 435.095C0.627689 432.189 0.00314228 429.072 0 425.924L0 23.984C0 17.432 2.72 11.436 7.052 7.052C9.27175 4.81954 11.9105 3.04738 14.8168 1.83722C17.7231 0.627053 20.8398 0.002705 23.988 0L248.912 0C252.356 0 255.576 0.668 258.58 2C261.593 3.38997 264.308 5.35002 266.576 7.772L326.932 72.348C327.096 72.516 327.208 72.68 327.376 72.848C329.222 74.9263 330.687 77.3134 331.704 79.9C332.732 82.673 333.259 85.6066 333.26 88.564V127.764C333.259 129.884 332.416 131.918 330.917 133.417C329.418 134.916 327.384 135.759 325.264 135.76C324.21 135.765 323.165 135.562 322.189 135.163C321.214 134.764 320.326 134.176 319.578 133.433C318.83 132.69 318.236 131.807 317.83 130.834C317.424 129.862 317.214 128.818 317.212 127.764V88.564C317.212 87.452 317.104 86.456 316.768 85.564C316.436 84.837 316.027 84.1477 315.548 83.508C315.436 83.4 315.32 83.344 315.212 83.232L254.912 18.656C254.116 17.8115 253.176 17.1153 252.136 16.6C251.114 16.1857 250.019 15.979 248.916 15.992H23.988C22.9405 15.9909 21.9035 16.2019 20.9397 16.6123C19.9759 17.0227 19.1052 17.624 18.38 18.38L18.324 18.324C16.88 19.764 15.992 21.82 15.992 23.984V425.924C15.992 428.144 16.88 430.144 18.324 431.588L18.38 431.644C19.824 433.036 21.82 433.98 23.988 433.98H88.336Z" fill="black"/>
<path d="M283.284 364.464L146.084 338.416C136.812 336.696 128.256 332.644 122.1 326.48C116.208 320.596 112.544 312.88 112.544 303.604H128.536C128.536 308.324 130.428 312.212 133.424 315.212C137.256 318.984 142.864 321.596 149.028 322.76L286.228 348.8L283.284 364.464ZM511.988 303.604C511.988 312.876 508.324 320.54 502.436 326.424V326.48C496.272 332.644 487.724 336.7 478.508 338.416L341.304 364.68L338.308 349.024L475.508 322.76C481.728 321.54 487.336 318.988 491.164 315.212C492.712 313.704 493.938 311.898 494.768 309.903C495.598 307.908 496.016 305.765 495.996 303.604H511.988ZM203.772 71.4562C208.212 71.4562 211.768 75.0122 211.768 79.4522C211.767 81.5725 210.924 83.6057 209.425 85.105C207.926 86.6044 205.892 87.4471 203.772 87.4482H92.172C91.1007 87.4821 90.0334 87.3003 89.0337 86.9137C88.034 86.5272 87.1221 85.9436 86.3523 85.1978C85.5825 84.4519 84.9704 83.559 84.5524 82.572C84.1344 81.585 83.919 80.5241 83.919 79.4522C83.919 78.3803 84.1344 77.3194 84.5524 76.3324C84.9704 75.3454 85.5825 74.4524 86.3523 73.7066C87.1221 72.9608 88.034 72.3772 89.0337 71.9906C90.0334 71.604 91.1007 71.4223 92.172 71.4562H203.772ZM54.076 71.4562C58.52 71.4562 62.132 75.0122 62.132 79.4522C62.1193 81.5793 61.2646 83.6149 59.7548 85.1134C58.245 86.6119 56.2032 87.4514 54.076 87.4482H48.084C43.692 87.4482 40.084 83.8402 40.084 79.4522C40.085 77.3312 40.9284 75.2973 42.4285 73.7979C43.9287 72.2985 45.9629 71.4562 48.084 71.4562H54.076ZM151.188 144.028C155.576 144.028 159.184 147.632 159.184 152.024C159.184 156.464 155.576 160.016 151.188 160.016H92.168C90.1014 159.936 88.1462 159.059 86.7124 157.568C85.2787 156.078 84.4778 154.09 84.4778 152.022C84.4778 149.954 85.2787 147.966 86.7124 146.476C88.1462 144.986 90.1014 144.108 92.168 144.028H151.188ZM54.08 144.028C58.52 144.028 62.132 147.632 62.132 152.024C62.132 156.464 58.524 160.016 54.08 160.016H48.084C45.9636 160.016 43.93 159.174 42.43 157.676C40.9299 156.177 40.0861 154.145 40.084 152.024C40.084 147.636 43.692 144.028 48.084 144.028H54.08ZM203.772 107.768C208.212 107.768 211.768 111.324 211.768 115.764C211.767 117.885 210.924 119.918 209.425 121.417C207.926 122.916 205.892 123.759 203.772 123.76H92.172C91.1007 123.794 90.0334 123.612 89.0337 123.226C88.034 122.839 87.1221 122.256 86.3523 121.51C85.5825 120.764 84.9704 119.871 84.5524 118.884C84.1344 117.897 83.919 116.836 83.919 115.764C83.919 114.692 84.1344 113.631 84.5524 112.644C84.9704 111.657 85.5825 110.764 86.3523 110.019C87.1221 109.273 88.034 108.689 89.0337 108.303C90.0334 107.916 91.1007 107.734 92.172 107.768H203.772ZM54.076 107.768C58.52 107.768 62.132 111.324 62.132 115.764C62.1182 117.891 61.2632 119.926 59.7536 121.424C58.2441 122.923 56.2029 123.762 54.076 123.76H48.084C43.692 123.76 40.084 120.152 40.084 115.764C40.085 113.643 40.9284 111.609 42.4285 110.11C43.9287 108.61 45.9629 107.768 48.084 107.768H54.076ZM257.132 2.94019L329.92 81.9522C331.348 83.5128 332.097 85.5766 332.003 87.6897C331.91 89.8029 330.98 91.7922 329.42 93.2202C327.955 94.5767 326.033 95.3309 324.036 95.3322H273.9C269.834 95.3306 265.808 94.5255 262.054 92.9631C258.299 91.4008 254.891 89.1119 252.024 86.2282L251.524 85.7282C245.997 79.9837 242.911 72.3202 242.916 64.3482V7.99619C242.917 5.87515 243.76 3.84134 245.261 2.34192C246.761 0.842493 248.795 0.000187235 250.916 0.0001875C253.408 0.0001875 255.632 1.16419 257.132 2.94019ZM305.828 79.3442L258.908 28.4802V64.3522C258.901 68.1668 260.352 71.8398 262.964 74.6202L263.3 74.9562C264.692 76.3476 266.345 77.451 268.164 78.2033C269.982 78.9555 271.932 79.3419 273.9 79.3402L305.828 79.3442ZM363.572 43.0842C363.365 44.1124 362.955 45.0892 362.367 45.9575C361.778 46.8259 361.023 47.5685 360.145 48.1421C359.267 48.7158 358.283 49.109 357.252 49.2989C356.22 49.4888 355.161 49.4715 354.136 49.2482C353.111 49.0406 352.137 48.633 351.269 48.0487C350.402 47.4644 349.658 46.715 349.081 45.8431C348.503 44.9713 348.103 43.9941 347.903 42.9675C347.703 41.941 347.708 40.8851 347.916 39.8602L350.972 25.3122L354.968 6.38019C355.34 4.57812 356.322 2.95923 357.747 1.79583C359.173 0.632431 360.956 -0.00449675 362.796 -0.0078125H390.78C394.832 -0.0078125 398.168 2.99219 398.72 6.93219L404.604 34.9162C408.712 36.0842 412.712 37.4722 416.596 39.0802C420.54 40.6922 424.368 42.5802 428.032 44.6362L452.52 28.6442C454.048 27.6592 455.867 27.2269 457.674 27.419C459.482 27.6111 461.169 28.4161 462.456 29.7002H462.516L472.4 39.5842C472.508 39.7522 472.676 39.8642 472.792 40.0282L482.284 49.5242C485.056 52.2442 485.34 56.5762 483.176 59.6842L467.348 83.9442C469.449 87.6395 471.322 91.46 472.956 95.3842C474.512 99.2682 475.9 103.268 477.064 107.376L505.604 113.428C507.481 113.795 509.163 114.829 510.337 116.34C511.511 117.85 512.099 119.734 511.992 121.644V149.192C511.992 153.244 508.996 156.632 505.052 157.132L477.068 163.016C475.925 167.087 474.553 171.091 472.96 175.008C470.67 180.534 467.903 185.848 464.688 190.892C464.132 191.788 463.404 192.565 462.546 193.176C461.687 193.788 460.715 194.223 459.687 194.455C458.659 194.687 457.594 194.713 456.556 194.529C455.518 194.346 454.527 193.958 453.64 193.388C451.851 192.246 450.589 190.44 450.131 188.368C449.672 186.296 450.056 184.126 451.196 182.336C456.557 173.914 460.444 164.64 462.692 154.912C462.956 153.33 463.691 151.864 464.8 150.705C465.91 149.546 467.343 148.749 468.912 148.416L496 142.752V135.2H496.056V127.704L468.904 121.984C467.405 121.671 466.028 120.934 464.935 119.862C463.842 118.789 463.08 117.425 462.74 115.932C461.662 110.994 460.138 106.163 458.188 101.5C456.246 96.8282 453.904 92.3328 451.188 88.0642C450.381 86.7713 449.958 85.2759 449.968 83.7521C449.978 82.2282 450.421 80.7385 451.244 79.4562L466.408 56.2482L461.516 51.3082C461.352 51.2002 461.244 51.0842 461.072 50.9162L455.744 45.5882L433.032 60.4122C431.739 61.4044 430.172 61.974 428.543 62.0434C426.915 62.1129 425.305 61.6787 423.932 60.8002C419.662 58.0878 415.167 55.7472 410.496 53.8042C405.945 51.9224 401.246 50.4186 396.448 49.3082C394.869 49.0511 393.406 48.3176 392.255 47.206C391.104 46.0944 390.32 44.6576 390.008 43.0882L384.28 15.9882H369.232L366.624 28.5362L363.572 43.0842ZM376.788 85.6722C372.344 85.6722 368.788 82.1162 368.788 77.6762C368.788 73.2362 372.344 69.6802 376.788 69.6802C394.884 69.6802 411.264 77.0122 423.148 88.8922C429.233 94.969 434.058 102.188 437.346 110.135C440.633 118.082 442.318 126.6 442.304 135.2C442.315 139.905 441.812 144.597 440.804 149.192C439.801 153.778 438.314 158.244 436.368 162.516C435.482 164.444 433.868 165.942 431.879 166.682C429.891 167.421 427.69 167.341 425.76 166.46C424.812 166.023 423.958 165.403 423.25 164.636C422.541 163.869 421.991 162.97 421.63 161.99C421.269 161.009 421.105 159.968 421.147 158.924C421.19 157.881 421.437 156.856 421.876 155.908C423.316 152.8 424.428 149.412 425.204 145.856C425.928 142.416 426.316 138.86 426.316 135.196C426.316 121.536 420.764 109.152 411.824 100.16C402.524 90.8833 389.924 85.6731 376.788 85.6722Z" fill="black"/>
<path d="M285.896 303.832H338.696C342.864 303.832 346.636 305.552 349.36 308.268L349.416 308.324C352.254 311.17 353.851 315.024 353.856 319.044V377.568C353.856 389.004 349.196 399.388 341.64 406.936C334.148 414.492 323.708 419.156 312.268 419.156C300.828 419.156 290.444 414.492 282.896 406.936C275.396 399.388 270.676 389.008 270.676 377.568V319.044C270.676 314.88 272.4 311.044 275.176 308.324V308.268C278.029 305.441 281.879 303.848 285.896 303.832ZM337.868 319.824H286.728V377.568C286.721 380.923 287.381 384.245 288.667 387.343C289.954 390.441 291.843 393.253 294.224 395.616C296.586 398 299.396 399.894 302.493 401.19C305.589 402.485 308.911 403.156 312.268 403.164C315.634 403.162 318.966 402.494 322.072 401.199C325.179 399.903 327.998 398.006 330.368 395.616C335.157 390.829 337.854 384.339 337.868 377.568V319.824Z" fill="black"/>
<path d="M312.264 384.504C316.68 384.504 320.26 380.924 320.26 376.508C320.26 372.092 316.68 368.512 312.264 368.512C307.848 368.512 304.268 372.092 304.268 376.508C304.268 380.924 307.848 384.504 312.264 384.504Z" fill="black"/>
</g>
<defs>
<clipPath id="clip0_76_130">
<rect width="512" height="512" fill="white"/>
</clipPath>
</defs>
</svg>
