<svg width="512" height="512" viewBox="0 0 512 512" fill="none" xmlns="http://www.w3.org/2000/svg">
<g clip-path="url(#clip0_76_126)">
<path d="M198.081 389.214H81.0857C74.688 389.214 69.502 394.4 69.502 400.798C69.502 407.195 74.688 412.381 81.0857 412.381H198.081C204.479 412.381 209.665 407.195 209.665 400.798C209.665 394.4 204.479 389.214 198.081 389.214ZM372.995 389.214H256C249.602 389.214 244.416 394.4 244.416 400.798C244.416 407.195 249.602 412.381 256 412.381H372.995C379.392 412.381 384.579 407.195 384.579 400.798C384.579 394.4 379.392 389.214 372.995 389.214ZM372.995 99.6211H81.0857C74.688 99.6211 69.502 104.807 69.502 111.205C69.502 117.602 74.688 122.789 81.0857 122.789H372.995C379.392 122.789 384.579 117.602 384.579 111.205C384.579 104.807 379.392 99.6211 372.995 99.6211ZM372.995 157.54H256C249.602 157.54 244.416 162.726 244.416 169.123C244.416 175.521 249.602 180.707 256 180.707H372.995C379.392 180.707 384.579 175.521 384.579 169.123C384.579 162.726 379.392 157.54 372.995 157.54ZM372.995 215.458H256C249.602 215.458 244.416 220.644 244.416 227.042C244.416 233.44 249.602 238.626 256 238.626H372.995C379.392 238.626 384.579 233.44 384.579 227.042C384.579 220.644 379.392 215.458 372.995 215.458ZM372.995 273.377H256C249.602 273.377 244.416 278.563 244.416 284.96C244.416 291.358 249.602 296.544 256 296.544H372.995C379.392 296.544 384.579 291.358 384.579 284.96C384.579 278.563 379.392 273.377 372.995 273.377ZM372.995 331.295H256C249.602 331.295 244.416 336.481 244.416 342.879C244.416 349.277 249.602 354.463 256 354.463H372.995C379.392 354.463 384.579 349.277 384.579 342.879C384.579 336.481 379.392 331.295 372.995 331.295ZM198.081 331.295H81.0857C74.688 331.295 69.502 336.481 69.502 342.879C69.502 349.277 74.688 354.463 81.0857 354.463H198.081C204.479 354.463 209.665 349.277 209.665 342.879C209.665 336.481 204.479 331.295 198.081 331.295ZM198.081 157.54H81.0857C74.688 157.54 69.502 162.726 69.502 169.123V286.119C69.502 292.517 74.688 297.703 81.0857 297.703H198.081C204.479 297.703 209.665 292.517 209.665 286.119V169.123C209.665 162.726 204.479 157.54 198.081 157.54ZM186.497 274.535H92.6694V180.707H186.497V274.535Z" fill="black"/>
<path d="M488.833 88.0357H454.081V53.2846C454.081 40.5101 443.689 30.1172 430.914 30.1172H23.1674C10.3929 30.1172 0 40.5101 0 53.2846V423.963C0 455.9 25.9823 481.882 57.9186 481.882H454.081C486.018 481.882 512 455.9 512 423.963V111.203C512 98.4286 501.607 88.0357 488.833 88.0357ZM488.833 423.963C488.833 443.125 473.243 458.714 454.081 458.714H57.9186C38.7568 458.714 23.1674 443.125 23.1674 423.963V53.2846H430.914V406.588C430.914 422.556 443.905 435.547 459.873 435.547C466.27 435.547 471.457 430.361 471.457 423.963C471.457 417.566 466.27 412.38 459.873 412.38C456.68 412.38 454.081 409.781 454.081 406.588V111.203H488.833V423.963Z" fill="black"/>
</g>
<defs>
<clipPath id="clip0_76_126">
<rect width="512" height="512" fill="white"/>
</clipPath>
</defs>
</svg>
