<svg width="512" height="512" viewBox="0 0 512 512" fill="none" xmlns="http://www.w3.org/2000/svg">
<path d="M473.438 450.141V180.047C473.438 166.24 462.245 155.047 448.438 155.047H63.562C49.755 155.047 38.562 166.24 38.562 180.047V450.141M76.851 450.141H15C13.0109 450.141 11.1032 450.931 9.6967 452.338C8.29018 453.744 7.5 455.652 7.5 457.641V471.735C7.5 485.542 18.693 496.735 32.5 496.735H479.5C493.307 496.735 504.5 485.542 504.5 471.735V457.641C504.5 455.652 503.71 453.744 502.303 452.338C500.897 450.931 498.989 450.141 497 450.141H318.125L309.916 458.35C307.594 460.671 304.838 462.513 301.805 463.769C298.772 465.025 295.521 465.672 292.238 465.672H219.761C213.131 465.672 206.772 463.038 202.083 458.35L193.874 450.141H111.85" stroke="black" stroke-width="15" stroke-miterlimit="10" stroke-linecap="round" stroke-linejoin="round"/>
<path d="M69.625 186.109H442.375V419.078H69.625V186.109Z" stroke="black" stroke-width="15" stroke-miterlimit="10" stroke-linecap="round" stroke-linejoin="round"/>
<path d="M310.359 267.594V248.235H333.656C342.234 248.235 349.187 241.281 349.187 232.704C349.187 224.127 342.233 217.173 333.656 217.173H256C247.422 217.173 240.469 224.127 240.469 232.704C240.469 241.281 247.423 248.235 256 248.235H279.297V372.485C279.297 381.063 286.251 388.016 294.828 388.016C303.405 388.016 310.359 381.062 310.359 372.485V302.594M343.858 67.1889L377.321 33.7259C379.196 31.8506 381.74 30.797 384.392 30.7969H411.312M193.875 388.016C202.453 388.016 209.406 381.062 209.406 372.485V232.703C209.406 224.125 202.452 217.172 193.875 217.172C185.298 217.172 178.344 224.126 178.344 232.703V372.484C178.344 381.062 185.297 388.016 193.875 388.016Z" stroke="black" stroke-width="15" stroke-miterlimit="10" stroke-linecap="round" stroke-linejoin="round"/>
<path d="M426.844 46.3276C435.422 46.3276 442.375 39.3742 442.375 30.7966C442.375 22.2191 435.422 15.2656 426.844 15.2656C418.266 15.2656 411.313 22.2191 411.313 30.7966C411.313 39.3742 418.266 46.3276 426.844 46.3276Z" stroke="black" stroke-width="15" stroke-miterlimit="10" stroke-linecap="round" stroke-linejoin="round"/>
<path d="M442.375 123.984C450.952 123.984 457.906 117.03 457.906 108.453C457.906 99.8753 450.952 92.9219 442.375 92.9219C433.797 92.9219 426.844 99.8753 426.844 108.453C426.844 117.03 433.797 123.984 442.375 123.984Z" stroke="black" stroke-width="15" stroke-miterlimit="10" stroke-linecap="round" stroke-linejoin="round"/>
<path d="M168.142 67.1889L134.679 33.7259C132.804 31.8506 130.26 30.797 127.608 30.7969H100.688" stroke="black" stroke-width="15" stroke-miterlimit="10" stroke-linecap="round" stroke-linejoin="round"/>
<path d="M85.156 46.3276C93.7335 46.3276 100.687 39.3742 100.687 30.7966C100.687 22.2191 93.7335 15.2656 85.156 15.2656C76.5785 15.2656 69.625 22.2191 69.625 30.7966C69.625 39.3742 76.5785 46.3276 85.156 46.3276Z" stroke="black" stroke-width="15" stroke-miterlimit="10" stroke-linecap="round" stroke-linejoin="round"/>
<path d="M426.844 108.453H350.273" stroke="black" stroke-width="15" stroke-miterlimit="10" stroke-linecap="round" stroke-linejoin="round"/>
<path d="M69.6252 123.984C78.2028 123.984 85.1562 117.03 85.1562 108.453C85.1562 99.8753 78.2028 92.9219 69.6252 92.9219C61.0477 92.9219 54.0942 99.8753 54.0942 108.453C54.0942 117.03 61.0477 123.984 69.6252 123.984Z" stroke="black" stroke-width="15" stroke-miterlimit="10" stroke-linecap="round" stroke-linejoin="round"/>
<path d="M85.1558 108.453H161.727M380.25 155.047V140.567C380.25 139.174 379.862 137.809 379.13 136.624C378.397 135.439 377.35 134.482 376.104 133.859L359.295 125.454C357.542 124.583 356.203 123.056 355.569 121.205C354.102 116.888 352.354 112.672 350.337 108.584C349.474 106.825 349.34 104.796 349.964 102.939L355.909 85.1029C356.349 83.7815 356.413 82.3636 356.093 81.008C355.773 79.6524 355.082 78.4127 354.097 77.4279L333.619 56.9499C332.634 55.965 331.394 55.2738 330.039 54.9537C328.683 54.6337 327.265 54.6974 325.944 55.1379L308.108 61.0829C306.25 61.707 304.222 61.573 302.463 60.7099C298.374 58.6925 294.158 56.9448 289.842 55.4779C287.99 54.8433 286.464 53.5045 285.593 51.7519L277.188 34.9429C276.565 33.697 275.608 32.6492 274.423 31.9169C273.238 31.1847 271.873 30.7968 270.48 30.7969H241.52C240.127 30.7968 238.762 31.1847 237.577 31.9169C236.392 32.6492 235.435 33.697 234.812 34.9429L226.407 51.7519C225.536 53.5047 224.009 54.8435 222.158 55.4779C217.841 56.9444 213.625 58.6922 209.537 60.7099C207.778 61.5725 205.749 61.7065 203.892 61.0829L186.056 55.1379C184.734 54.6974 183.316 54.6337 181.961 54.9537C180.605 55.2738 179.366 55.965 178.381 56.9499L157.903 77.4279C156.918 78.4127 156.227 79.6524 155.907 81.008C155.587 82.3636 155.65 83.7815 156.091 85.1029L162.036 102.939C162.66 104.796 162.526 106.825 161.663 108.584C159.645 112.672 157.898 116.888 156.431 121.205C155.796 123.056 154.457 124.583 152.705 125.454L135.896 133.859C134.65 134.482 133.602 135.439 132.87 136.624C132.138 137.809 131.75 139.174 131.75 140.567V155.047" stroke="black" stroke-width="15" stroke-miterlimit="10" stroke-linecap="round" stroke-linejoin="round"/>
<path d="M251.944 108.627C253.293 108.511 254.646 108.453 256 108.453C281.733 108.453 302.594 129.314 302.594 155.047M209.406 155.047C209.39 144.153 213.206 133.601 220.187 125.238" stroke="black" stroke-width="15" stroke-miterlimit="10" stroke-linecap="round" stroke-linejoin="round"/>
</svg>
