<svg width="512" height="512" viewBox="0 0 512 512" fill="none" xmlns="http://www.w3.org/2000/svg">
<path d="M103.786 93.3337C101.189 93.3967 98.6684 94.2229 96.538 95.7093C94.4077 97.1957 92.7622 99.2765 91.8069 101.692C90.8515 104.108 90.6286 106.751 91.166 109.293C91.7033 111.834 92.9771 114.161 94.8284 115.983C96.6797 117.805 99.0266 119.042 101.576 119.539C104.126 120.036 106.765 119.771 109.166 118.777C111.566 117.784 113.62 116.106 115.073 113.952C116.525 111.798 117.311 109.265 117.333 106.667C117.333 104.898 116.981 103.147 116.298 101.515C115.614 99.8831 114.613 98.4037 113.352 97.1627C112.092 95.9218 110.596 94.9442 108.954 94.2868C107.312 93.6294 105.555 93.3054 103.786 93.3337ZM354.026 126.294C351.79 126.294 349.604 126.957 347.744 128.199C345.885 129.442 344.436 131.208 343.58 133.274C342.724 135.34 342.5 137.613 342.937 139.806C343.373 142 344.45 144.014 346.031 145.595C347.612 147.177 349.627 148.254 351.82 148.69C354.014 149.126 356.287 148.902 358.353 148.046C360.419 147.191 362.185 145.741 363.427 143.882C364.67 142.023 365.333 139.837 365.333 137.6C365.333 136.116 365.04 134.645 364.472 133.274C363.904 131.902 363.071 130.655 362.021 129.605C360.971 128.555 359.725 127.723 358.353 127.154C356.981 126.586 355.511 126.294 354.026 126.294ZM183.039 397.76C180.93 397.76 178.867 398.386 177.113 399.558C175.359 400.73 173.992 402.396 173.185 404.345C172.377 406.294 172.166 408.439 172.578 410.508C172.989 412.577 174.005 414.478 175.497 415.97C176.989 417.461 178.889 418.477 180.958 418.889C183.028 419.3 185.172 419.089 187.121 418.282C189.07 417.474 190.736 416.107 191.908 414.353C193.081 412.599 193.706 410.537 193.706 408.427C193.706 405.598 192.582 402.885 190.582 400.885C188.582 398.884 185.868 397.76 183.039 397.76ZM375.679 375.894C374.456 375.894 373.26 376.257 372.242 376.936C371.225 377.616 370.432 378.582 369.964 379.713C369.495 380.843 369.373 382.087 369.612 383.287C369.85 384.487 370.44 385.59 371.305 386.455C372.17 387.32 373.272 387.909 374.472 388.148C375.673 388.387 376.916 388.264 378.047 387.796C379.177 387.328 380.144 386.535 380.823 385.518C381.503 384.5 381.866 383.304 381.866 382.08C381.866 380.44 381.214 378.866 380.054 377.706C378.894 376.546 377.32 375.894 375.679 375.894ZM255.999 293.76C267.315 293.76 278.168 289.265 286.169 281.264C294.171 273.262 298.666 262.41 298.666 251.094V187.094C298.666 175.778 294.171 164.925 286.169 156.924C278.168 148.922 267.315 144.427 255.999 144.427C244.684 144.427 233.831 148.922 225.83 156.924C217.828 164.925 213.333 175.778 213.333 187.094V251.094C213.333 262.41 217.828 273.262 225.83 281.264C233.831 289.265 244.684 293.76 255.999 293.76ZM234.666 187.094C234.666 181.436 236.914 176.01 240.914 172.009C244.915 168.008 250.341 165.76 255.999 165.76C261.657 165.76 267.084 168.008 271.084 172.009C275.085 176.01 277.333 181.436 277.333 187.094V251.094C277.333 256.752 275.085 262.178 271.084 266.179C267.084 270.179 261.657 272.427 255.999 272.427C250.341 272.427 244.915 270.179 240.914 266.179C236.914 262.178 234.666 256.752 234.666 251.094V187.094Z" fill="black"/>
<path d="M312.64 284.374C311.394 283.727 310.032 283.332 308.633 283.213C307.234 283.093 305.825 283.251 304.487 283.677C303.149 284.103 301.909 284.789 300.837 285.696C299.765 286.603 298.882 287.712 298.24 288.961C294.283 296.765 288.241 303.32 280.785 307.899C273.329 312.478 264.75 314.902 256 314.902C247.25 314.902 238.671 312.478 231.215 307.899C223.759 303.32 217.717 296.765 213.76 288.961C212.458 286.443 210.21 284.545 207.51 283.685C204.809 282.825 201.877 283.073 199.36 284.374C196.842 285.675 194.944 287.924 194.084 290.624C193.224 293.325 193.472 296.256 194.773 298.774C199.713 308.431 206.87 316.781 215.658 323.141C224.446 329.5 234.615 333.687 245.333 335.361V367.894C245.333 370.723 246.457 373.436 248.457 375.436C250.458 377.437 253.171 378.561 256 378.561C258.829 378.561 261.542 377.437 263.542 375.436C265.543 373.436 266.666 370.723 266.666 367.894V335.361C277.397 333.685 287.577 329.484 296.367 323.105C305.157 316.725 312.306 308.35 317.226 298.667C318.499 296.161 318.732 293.254 317.873 290.577C317.014 287.901 315.133 285.671 312.64 284.374ZM128 186.027C125.171 186.027 122.458 187.151 120.457 189.152C118.457 191.152 117.333 193.865 117.333 196.694V326.401C117.333 329.23 118.457 331.943 120.457 333.943C122.458 335.944 125.171 337.067 128 337.067C130.829 337.067 133.542 335.944 135.542 333.943C137.543 331.943 138.666 329.23 138.666 326.401V196.694C138.666 193.865 137.543 191.152 135.542 189.152C133.542 187.151 130.829 186.027 128 186.027ZM63.9997 213.334C61.1707 213.334 58.4576 214.458 56.4572 216.458C54.4568 218.459 53.333 221.172 53.333 224.001V298.667C53.333 301.496 54.4568 304.209 56.4572 306.21C58.4576 308.21 61.1707 309.334 63.9997 309.334C66.8287 309.334 69.5418 308.21 71.5421 306.21C73.5425 304.209 74.6663 301.496 74.6663 298.667V224.001C74.6663 221.172 73.5425 218.459 71.5421 216.458C69.5418 214.458 66.8287 213.334 63.9997 213.334ZM160 208.427C157.171 208.427 154.458 209.551 152.457 211.552C150.457 213.552 149.333 216.265 149.333 219.094V304.427C149.333 307.256 150.457 309.969 152.457 311.97C154.458 313.97 157.171 315.094 160 315.094C162.829 315.094 165.542 313.97 167.542 311.97C169.543 309.969 170.666 307.256 170.666 304.427V219.094C170.666 216.265 169.543 213.552 167.542 211.552C165.542 209.551 162.829 208.427 160 208.427ZM95.9997 229.761C93.1707 229.761 90.4576 230.884 88.4572 232.885C86.4568 234.885 85.333 237.598 85.333 240.427V282.561C85.333 285.39 86.4568 288.103 88.4572 290.103C90.4576 292.104 93.1707 293.227 95.9997 293.227C98.8287 293.227 101.542 292.104 103.542 290.103C105.543 288.103 106.666 285.39 106.666 282.561V240.427C106.666 237.598 105.543 234.885 103.542 232.885C101.542 230.884 98.8287 229.761 95.9997 229.761ZM416 186.027C413.171 186.027 410.458 187.151 408.457 189.152C406.457 191.152 405.333 193.865 405.333 196.694V326.401C405.333 329.23 406.457 331.943 408.457 333.943C410.458 335.944 413.171 337.067 416 337.067C418.829 337.067 421.542 335.944 423.542 333.943C425.543 331.943 426.666 329.23 426.666 326.401V196.694C426.666 193.865 425.543 191.152 423.542 189.152C421.542 187.151 418.829 186.027 416 186.027ZM352 213.334C349.171 213.334 346.458 214.458 344.457 216.458C342.457 218.459 341.333 221.172 341.333 224.001V298.667C341.333 301.496 342.457 304.209 344.457 306.21C346.458 308.21 349.171 309.334 352 309.334C354.829 309.334 357.542 308.21 359.542 306.21C361.543 304.209 362.666 301.496 362.666 298.667V224.001C362.666 221.172 361.543 218.459 359.542 216.458C357.542 214.458 354.829 213.334 352 213.334ZM448 208.427C445.171 208.427 442.458 209.551 440.457 211.552C438.457 213.552 437.333 216.265 437.333 219.094V304.427C437.333 307.256 438.457 309.969 440.457 311.97C442.458 313.97 445.171 315.094 448 315.094C450.829 315.094 453.542 313.97 455.542 311.97C457.543 309.969 458.666 307.256 458.666 304.427V219.094C458.666 216.265 457.543 213.552 455.542 211.552C453.542 209.551 450.829 208.427 448 208.427ZM384 229.761C381.171 229.761 378.458 230.884 376.457 232.885C374.457 234.885 373.333 237.598 373.333 240.427V282.561C373.333 285.39 374.457 288.103 376.457 290.103C378.458 292.104 381.171 293.227 384 293.227C386.829 293.227 389.542 292.104 391.542 290.103C393.543 288.103 394.666 285.39 394.666 282.561V240.427C394.666 237.598 393.543 234.885 391.542 232.885C389.542 230.884 386.829 229.761 384 229.761Z" fill="black"/>
</svg>
