<svg width="520" height="512" viewBox="0 0 520 512" fill="none" xmlns="http://www.w3.org/2000/svg">
<g filter="url(#filter0_d_76_257)">
<path d="M457.547 18.1172H330.895C304.008 18.1172 282.212 39.9133 282.212 66.7995V130.015C282.212 156.902 304.009 178.697 330.895 178.697H394.539L425.005 213.51C434.042 223.836 451.049 217.445 451.049 203.723V178.698H457.547C484.435 178.698 506.23 156.902 506.23 130.016V66.7995C506.231 39.9133 484.435 18.1172 457.547 18.1172Z" fill="#9DC6FB"/>
<path d="M354.028 178.698H330.893C304.009 178.698 282.211 156.9 282.211 130.016V66.7992C282.211 39.9152 304.009 18.1172 330.893 18.1172H354.028C327.144 18.1172 305.346 39.9152 305.346 66.7992V130.017C305.346 156.9 327.144 178.698 354.028 178.698Z" fill="#80B4FB"/>
<path d="M73.6104 238.09H235.196C269.499 238.09 297.307 265.897 297.307 300.2V380.852C297.307 415.154 269.5 442.962 235.196 442.962H153.998L115.129 487.377C103.6 500.551 81.9004 492.397 81.9004 474.891V442.963H73.6094C39.3072 442.963 11.499 415.156 11.499 380.853V300.199C11.5 265.897 39.3072 238.09 73.6104 238.09Z" fill="#E27A66"/>
<path d="M114.39 488.179C102.693 500.194 81.9024 492.024 81.9024 474.89V442.959H73.6094C39.3102 442.959 11.5 415.149 11.5 380.85V300.195C11.5 265.896 39.3102 238.086 73.6094 238.086H100.726C66.4183 238.086 38.6162 265.896 38.6162 300.195V380.85C38.6162 415.149 66.4183 442.959 100.726 442.959H109.019V474.891C109.019 480.351 111.133 484.906 114.39 488.179Z" fill="#DD636E"/>
<path d="M364.759 277.145H468.592C490.634 277.145 508.503 295.014 508.503 317.056V368.881C508.503 390.923 490.634 408.792 468.592 408.792H416.414L391.437 437.332C384.029 445.797 370.085 440.558 370.085 429.308V408.791H364.758C342.716 408.791 324.847 390.922 324.847 368.88V317.055C324.848 295.014 342.717 277.145 364.759 277.145Z" fill="#FFE07D"/>
<path d="M390.963 437.85C383.447 445.571 370.087 440.32 370.087 429.311V408.792H364.758C342.718 408.792 324.848 390.922 324.848 368.882V317.055C324.848 295.015 342.718 277.145 364.758 277.145H382.182C360.137 277.145 342.272 295.015 342.272 317.055V368.882C342.272 390.922 360.137 408.792 382.182 408.792H387.511V429.311C387.512 432.82 388.87 435.747 390.963 437.85Z" fill="#FFD064"/>
<path d="M343.136 118.086H164.007C125.98 118.086 95.1533 148.913 95.1533 186.939V276.347C95.1533 314.373 125.98 345.2 164.007 345.2H254.02L297.11 394.438C309.891 409.042 333.945 400.003 333.945 380.595V345.2H343.136C381.162 345.2 411.989 314.373 411.989 276.347V186.939C411.989 148.912 381.163 118.086 343.136 118.086Z" fill="#F9F6F9"/>
<path d="M196.726 345.198H164.006C125.983 345.198 95.1533 314.369 95.1533 276.346V186.934C95.1533 148.911 125.983 118.082 164.006 118.082H196.726C158.703 118.082 127.874 148.911 127.874 186.934V276.346C127.874 314.369 158.703 345.198 196.726 345.198Z" fill="#DDDAEC"/>
<path d="M161.51 18.1172H61.3421C40.0779 18.1172 22.8398 35.3553 22.8398 56.6194V106.616C22.8398 127.88 40.0779 145.118 61.3421 145.118H111.677L135.773 172.651C142.92 180.817 156.371 175.763 156.371 164.911V145.119H161.51C182.774 145.119 200.012 127.881 200.012 106.617V56.6194C200.012 35.3553 182.774 18.1172 161.51 18.1172Z" fill="#B3E59F"/>
<path d="M79.6378 145.117H61.3408C40.0788 145.117 22.8398 127.878 22.8398 106.616V56.6182C22.8398 35.3562 40.0788 18.1172 61.3408 18.1172H79.6378C58.3758 18.1172 41.1368 35.3562 41.1368 56.6182V106.615C41.1368 127.878 58.3758 145.117 79.6378 145.117Z" fill="#95D6A4"/>
<path d="M468.594 269.641H419.492V218.595C423.842 223.48 429.871 226.112 436.104 226.112C438.757 226.112 441.448 225.635 444.06 224.654C452.865 221.344 458.553 213.13 458.553 203.727V186.193C489.072 185.653 513.73 160.66 513.73 130.015V66.8055C513.73 35.8243 488.525 10.6182 457.543 10.6182H330.895C299.915 10.6182 274.709 35.8233 274.709 66.8055V110.591H207.331C207.444 109.279 207.512 107.956 207.512 106.615V56.6195C207.512 31.2533 186.875 10.6172 161.51 10.6172H61.3423C35.9772 10.6172 15.3401 31.2533 15.3401 56.6195V106.616C15.3401 131.982 35.9772 152.618 61.3423 152.618H95.7885C90.4515 163.179 87.6615 174.825 87.6615 186.932V230.592H73.6004C35.2232 230.592 4 261.82 4 300.203V380.853C4 419.237 35.2232 450.464 73.6004 450.464H74.4004V474.894C74.4004 486.022 81.1325 495.742 91.5525 499.656C94.5584 500.791 97.7444 501.375 100.958 501.379C108.405 501.379 115.609 498.206 120.763 492.314L157.403 450.463H189.93C194.073 450.463 197.43 447.105 197.43 442.963C197.43 438.821 194.073 435.463 189.93 435.463H154.001C152.932 435.463 151.876 435.691 150.903 436.133C149.929 436.574 149.062 437.219 148.358 438.023L109.475 482.436C104.632 487.973 98.5706 486.269 96.8275 485.614C95.0855 484.959 89.4005 482.252 89.4005 474.894V442.964C89.4005 440.975 88.6103 439.067 87.2038 437.66C85.7973 436.254 83.8896 435.464 81.9005 435.464H73.6004C43.4942 435.464 19.0001 410.966 19.0001 380.853V300.203C19.0001 270.091 43.4932 245.593 73.6004 245.593H87.6605V276.343C87.6605 318.448 121.911 352.703 164.011 352.703H250.617L287.875 395.274C281.464 418.763 259.867 435.463 235.191 435.463H219.511C215.368 435.463 212.011 438.821 212.011 442.963C212.011 447.105 215.368 450.463 219.511 450.463H235.192C264.172 450.463 289.827 432.387 300.075 406.115C303.99 408.119 308.327 409.161 312.725 409.157C313.773 409.156 314.821 409.099 315.863 408.985C321.542 408.371 326.914 406.098 331.309 402.449C339.647 410.79 350.805 415.708 362.586 416.237V429.312C362.586 437.591 367.594 444.822 375.345 447.735C377.582 448.58 379.954 449.015 382.345 449.018C387.885 449.018 393.246 446.657 397.082 442.274L419.816 416.287H468.594C494.734 416.287 516 395.019 516 368.879V317.057C516 290.912 494.733 269.641 468.594 269.641ZM30.3402 106.616V56.6195C30.3402 39.5244 44.2472 25.6173 61.3423 25.6173H161.51C178.605 25.6173 192.512 39.5244 192.512 56.6195V106.616C192.512 123.711 178.605 137.618 161.51 137.618H156.37C154.381 137.618 152.473 138.408 151.067 139.815C149.66 141.221 148.87 143.129 148.87 145.118V164.91C148.87 167.568 146.942 168.58 146.113 168.891C145.284 169.202 143.168 169.712 141.416 167.711L117.321 140.179C116.617 139.375 115.749 138.73 114.776 138.288C113.802 137.846 112.746 137.618 111.677 137.618H61.3423C44.2472 137.618 30.3402 123.71 30.3402 106.616ZM314.232 394.073C311.687 394.35 306.808 394.126 302.739 389.474L259.664 340.263C258.961 339.459 258.093 338.814 257.119 338.372C256.146 337.931 255.089 337.702 254.02 337.702H164.01C130.182 337.702 102.66 310.176 102.66 276.342V186.931C102.66 175.839 105.559 165.226 111.099 155.846L130.128 177.589C133.88 181.878 139.124 184.187 144.543 184.187C146.826 184.187 149.142 183.777 151.389 182.933C158.97 180.084 163.869 173.01 163.869 164.91V152.557C181.462 151.664 196.471 140.837 203.404 125.591H343.142C343.85 125.591 344.557 125.598 345.257 125.633C346.244 125.686 347.232 125.544 348.164 125.215C349.095 124.885 349.953 124.375 350.687 123.713C351.421 123.051 352.016 122.25 352.44 121.357C352.863 120.464 353.106 119.496 353.154 118.509C353.202 117.522 353.055 116.535 352.72 115.605C352.386 114.675 351.87 113.82 351.204 113.09C350.538 112.359 349.735 111.768 348.839 111.349C347.944 110.931 346.974 110.693 345.987 110.651C345.039 110.607 344.09 110.588 343.141 110.592H289.708V66.8055C289.708 44.0954 308.184 25.6183 330.894 25.6183H457.543C480.253 25.6183 498.73 44.0944 498.73 66.8055V130.015C498.73 152.725 480.253 171.202 457.543 171.202H451.053C449.063 171.202 447.156 171.992 445.749 173.399C444.343 174.805 443.553 176.713 443.553 178.702V203.727C443.553 208.452 439.901 210.192 438.782 210.613C437.662 211.034 433.763 212.133 430.647 208.574L419.492 195.823V186.932C419.492 157.761 403.258 131.561 377.123 118.557C375.346 117.704 373.305 117.585 371.441 118.225C369.577 118.866 368.04 120.214 367.162 121.978C366.285 123.743 366.136 125.782 366.75 127.655C367.363 129.528 368.689 131.084 370.441 131.987C391.444 142.438 404.492 163.492 404.492 186.932V276.343C404.492 276.522 404.494 276.694 404.487 276.872C404.485 276.934 404.484 276.996 404.483 277.059C404.109 310.498 376.591 337.703 343.141 337.703H333.942C331.953 337.703 330.045 338.493 328.639 339.9C327.232 341.306 326.442 343.214 326.442 345.203V380.593C326.442 382.998 325.897 385.204 324.813 387.171C322.749 390.94 318.694 393.585 314.232 394.073ZM501 368.879C501 386.748 486.463 401.286 468.594 401.286H416.412C415.343 401.286 414.286 401.515 413.313 401.957C412.339 402.399 411.471 403.044 410.767 403.848L385.792 432.397C383.865 434.599 381.533 434.038 380.619 433.695C379.707 433.352 377.584 432.238 377.584 429.314V408.788C377.584 406.798 376.794 404.891 375.387 403.484C373.981 402.078 372.073 401.287 370.084 401.287H364.759C360.038 401.293 355.373 400.264 351.092 398.272C346.811 396.281 343.019 393.375 339.982 389.76C340.948 386.861 341.442 383.796 341.442 380.593V352.703H343.141C363.378 352.703 382.447 344.863 396.835 330.627C409.439 318.156 417.171 302.042 419.04 284.642H468.593C486.462 284.642 500.999 299.184 500.999 317.059V368.879H501Z" fill="black"/>
<path d="M236.574 191.764C236.549 191.694 236.522 191.626 236.493 191.558C235.041 188.027 231.615 185.711 227.815 185.75C225.955 185.748 224.136 186.301 222.592 187.339C221.048 188.377 219.849 189.852 219.148 191.576C219.125 191.633 219.102 191.69 219.081 191.747L188.031 273.271C187.68 274.191 187.514 275.172 187.543 276.156C187.571 277.141 187.793 278.11 188.196 279.009C188.599 279.908 189.175 280.718 189.891 281.394C190.608 282.071 191.45 282.599 192.37 282.95C193.291 283.3 194.271 283.466 195.256 283.438C196.24 283.409 197.21 283.187 198.108 282.784C199.007 282.381 199.818 281.805 200.494 281.089C201.17 280.373 201.698 279.53 202.049 278.61L207.942 263.137H247.477L253.309 278.589C253.847 280.015 254.807 281.244 256.061 282.111C257.315 282.978 258.803 283.443 260.327 283.443C261.541 283.443 262.736 283.148 263.81 282.585C264.884 282.021 265.806 281.205 266.496 280.207C267.186 279.209 267.623 278.059 267.771 276.854C267.918 275.65 267.771 274.428 267.342 273.293L236.574 191.764ZM213.655 248.136L227.8 210.997L241.816 248.136H213.655ZM179.786 186.83H146.517C144.528 186.83 142.62 187.621 141.213 189.027C139.807 190.434 139.017 192.341 139.017 194.331V276.414C139.017 280.556 142.374 283.914 146.517 283.914C150.66 283.914 154.017 280.556 154.017 276.414V242.095H177.143C181.286 242.095 184.643 238.737 184.643 234.595C184.643 230.453 181.286 227.095 177.143 227.095H154.017V201.83H179.786C180.778 201.841 181.763 201.656 182.682 201.284C183.602 200.912 184.439 200.361 185.145 199.664C185.851 198.966 186.411 198.136 186.793 197.22C187.176 196.305 187.372 195.322 187.372 194.33C187.372 193.338 187.176 192.355 186.793 191.44C186.411 190.524 185.851 189.694 185.145 188.996C184.439 188.299 183.602 187.748 182.682 187.376C181.763 187.005 180.778 186.819 179.786 186.83ZM355.321 281.687C356.017 282.385 356.843 282.938 357.754 283.315C358.664 283.692 359.64 283.885 360.625 283.884C361.61 283.885 362.586 283.692 363.496 283.315C364.406 282.938 365.232 282.385 365.928 281.687C366.625 280.991 367.177 280.164 367.554 279.254C367.931 278.344 368.126 277.369 368.126 276.384C368.126 275.399 367.932 274.424 367.555 273.514C367.178 272.604 366.625 271.777 365.929 271.081L358.647 263.798C364.404 255.784 367.807 245.972 367.807 235.374C367.807 208.441 345.895 186.528 318.962 186.528C292.028 186.528 270.116 208.441 270.116 235.374C270.116 262.307 292.028 284.218 318.962 284.218C329.485 284.23 339.727 280.825 348.149 274.515L355.321 281.687ZM318.962 269.217C300.3 269.217 285.116 254.034 285.116 235.373C285.116 216.711 300.3 201.528 318.962 201.528C337.624 201.528 352.807 216.711 352.807 235.373C352.814 241.593 351.097 247.693 347.845 252.995L339.477 244.627C338.07 243.22 336.163 242.43 334.174 242.43C332.185 242.43 330.277 243.22 328.871 244.627C328.174 245.323 327.621 246.15 327.244 247.06C326.867 247.969 326.673 248.945 326.673 249.93C326.673 250.915 326.867 251.89 327.244 252.8C327.621 253.71 328.173 254.537 328.87 255.233L337.381 263.744C331.904 267.32 325.503 269.222 318.962 269.217Z" fill="black"/>
</g>
<defs>
<filter id="filter0_d_76_257" x="0" y="0" width="520" height="520" filterUnits="userSpaceOnUse" color-interpolation-filters="sRGB">
<feFlood flood-opacity="0" result="BackgroundImageFix"/>
<feColorMatrix in="SourceAlpha" type="matrix" values="0 0 0 0 0 0 0 0 0 0 0 0 0 0 0 0 0 0 127 0" result="hardAlpha"/>
<feOffset dy="4"/>
<feGaussianBlur stdDeviation="2"/>
<feComposite in2="hardAlpha" operator="out"/>
<feColorMatrix type="matrix" values="0 0 0 0 0 0 0 0 0 0 0 0 0 0 0 0 0 0 0.25 0"/>
<feBlend mode="normal" in2="BackgroundImageFix" result="effect1_dropShadow_76_257"/>
<feBlend mode="normal" in="SourceGraphic" in2="effect1_dropShadow_76_257" result="shape"/>
</filter>
</defs>
</svg>
