<svg width="512" height="512" viewBox="0 0 512 512" fill="none" xmlns="http://www.w3.org/2000/svg">
<g clip-path="url(#clip0_35_2)">
<path d="M497.36 69.9958C489.828 62.4508 477.607 62.4378 470.075 69.9638L238.582 300.846L155.06 210.133C147.843 202.299 135.641 201.791 127.794 209.007C119.953 216.224 119.451 228.432 126.668 236.273L223.794 341.754C225.553 343.666 227.681 345.203 230.05 346.272C232.419 347.341 234.979 347.92 237.578 347.974C237.719 347.98 237.855 347.98 237.99 347.98C243.096 347.978 247.994 345.955 251.613 342.352L497.322 97.2868C504.873 89.7618 504.886 77.5408 497.36 69.9958Z" fill="black"/>
<path d="M492.703 236.703C482.045 236.703 473.407 245.341 473.407 256C473.407 375.883 375.883 473.407 256 473.407C136.124 473.407 38.593 375.883 38.593 256C38.593 136.124 136.124 38.593 256 38.593C266.658 38.593 275.297 29.955 275.297 19.297C275.297 8.638 266.658 0 256 0C114.84 0 0 114.84 0 256C0 397.154 114.84 512 256 512C397.154 512 512 397.154 512 256C512 245.342 503.362 236.703 492.703 236.703Z" fill="black"/>
</g>
<defs>
<clipPath id="clip0_35_2">
<rect width="512" height="512" fill="white"/>
</clipPath>
</defs>
</svg>
