<svg width="497" height="497" viewBox="0 0 497 497" fill="none" xmlns="http://www.w3.org/2000/svg">
<path fill-rule="evenodd" clip-rule="evenodd" d="M306.967 282.714V228.394C306.965 219.08 303.266 210.148 296.681 203.561C290.097 196.973 281.166 193.27 271.852 193.263H224.591C215.277 193.272 206.348 196.976 199.764 203.563C193.18 210.15 189.479 219.081 189.475 228.394V402.766C189.479 412.079 193.18 421.01 199.764 427.597C206.348 434.184 215.277 437.889 224.591 437.897H271.852C281.166 437.891 290.097 434.187 296.681 427.599C303.266 421.012 306.965 412.08 306.967 402.766V371.975C306.813 369.033 305.536 366.262 303.399 364.235C301.262 362.207 298.429 361.076 295.483 361.076C292.537 361.076 289.703 362.207 287.567 364.235C285.43 366.262 284.152 369.033 283.998 371.975V402.766C283.998 409.469 278.555 414.92 271.852 414.92H224.591C221.368 414.918 218.279 413.636 216.001 411.357C213.724 409.078 212.444 405.988 212.444 402.766V228.394C212.444 221.691 217.887 216.248 224.591 216.248H271.852C278.547 216.248 283.998 221.683 283.998 228.394V282.714C283.998 289.062 289.15 294.214 295.483 294.214C301.816 294.214 306.967 289.062 306.967 282.714Z" fill="black"/>
<path fill-rule="evenodd" clip-rule="evenodd" d="M306.967 338.427V322.342C306.813 319.401 305.536 316.63 303.399 314.602C301.262 312.574 298.429 311.444 295.483 311.444C292.537 311.444 289.703 312.574 287.566 314.602C285.43 316.63 284.152 319.401 283.998 322.342V338.427C283.998 344.768 289.15 349.919 295.483 349.919C301.816 349.919 306.967 344.776 306.967 338.427ZM248.851 60.3087C215.587 60.3087 188.569 87.3265 188.569 120.591C188.569 153.855 215.587 180.865 248.851 180.865C282.116 180.865 309.134 153.855 309.134 120.591C309.134 87.3265 282.116 60.3087 248.851 60.3087ZM248.851 83.3093C258.737 83.3155 268.216 87.2454 275.207 94.2357C282.197 101.226 286.127 110.705 286.133 120.591C286.129 130.477 282.2 139.957 275.209 146.948C268.218 153.939 258.738 157.868 248.851 157.872C238.966 157.866 229.487 153.936 222.496 146.946C215.506 139.956 211.576 130.477 211.57 120.591C211.574 110.704 215.503 101.223 222.494 94.2306C229.484 87.2386 238.964 83.3077 248.851 83.3014V83.3093Z" fill="black"/>
<path fill-rule="evenodd" clip-rule="evenodd" d="M128.224 58.2055C164.113 35.4679 205.737 23.4266 248.221 23.4919C372.307 23.4919 473.044 124.23 473.044 248.307C473.044 372.392 372.307 473.13 248.221 473.13C124.144 473.13 23.4061 372.392 23.4061 248.307C23.3382 194.431 42.6996 142.338 77.938 101.584C78.9233 100.441 79.6739 99.1159 80.1469 97.6833C80.62 96.2507 80.8062 94.7389 80.6951 93.2344C80.5839 91.7298 80.1774 90.2619 79.499 88.9144C78.8205 87.5669 77.8832 86.3662 76.7407 85.3809C75.5982 84.3956 74.2728 83.645 72.8402 83.172C71.4076 82.6989 69.8959 82.5127 68.3913 82.6238C66.8867 82.735 65.4188 83.1415 64.0713 83.82C62.7238 84.4984 61.5231 85.4357 60.5379 86.5782C21.6988 131.502 0.357747 188.922 0.429072 248.307C0.429072 385.074 111.462 496.107 248.221 496.107C384.988 496.107 496.021 385.074 496.021 248.307C496.021 111.548 384.988 0.514947 248.221 0.514947C201.386 0.44792 155.5 13.724 115.936 38.7889C113.361 40.4184 111.539 43.004 110.871 45.9769C110.203 48.9498 110.742 52.0664 112.372 54.6412C114.001 57.216 116.587 59.0381 119.56 59.7065C122.533 60.3749 125.649 59.835 128.224 58.2055Z" fill="black"/>
</svg>
