<svg width="512" height="512" viewBox="0 0 512 512" fill="none" xmlns="http://www.w3.org/2000/svg">
<path d="M25.6 99.84C25.6 89.6557 29.6457 79.8885 36.8471 72.6871C44.0485 65.4857 53.8157 61.44 64 61.44H448C458.184 61.44 467.951 65.4857 475.153 72.6871C482.354 79.8885 486.4 89.6557 486.4 99.84C486.4 110.024 482.354 119.792 475.153 126.993C467.951 134.194 458.184 138.24 448 138.24H64C53.8157 138.24 44.0485 134.194 36.8471 126.993C29.6457 119.792 25.6 110.024 25.6 99.84ZM25.6 253.44C25.6 243.256 29.6457 233.488 36.8471 226.287C44.0485 219.086 53.8157 215.04 64 215.04H294.4C304.584 215.04 314.352 219.086 321.553 226.287C328.754 233.488 332.8 243.256 332.8 253.44C332.8 263.624 328.754 273.392 321.553 280.593C314.352 287.794 304.584 291.84 294.4 291.84H64C53.8157 291.84 44.0485 287.794 36.8471 280.593C29.6457 273.392 25.6 263.624 25.6 253.44ZM25.6 407.04C25.6 396.856 29.6457 387.089 36.8471 379.887C44.0485 372.686 53.8157 368.64 64 368.64H448C458.184 368.64 467.951 372.686 475.153 379.887C482.354 387.089 486.4 396.856 486.4 407.04C486.4 417.224 482.354 426.991 475.153 434.193C467.951 441.394 458.184 445.44 448 445.44H64C53.8157 445.44 44.0485 441.394 36.8471 434.193C29.6457 426.991 25.6 417.224 25.6 407.04Z" fill="black"/>
</svg>
