<svg width="512" height="512" viewBox="0 0 512 512" fill="none" xmlns="http://www.w3.org/2000/svg">
<g clip-path="url(#clip0_2_2)">
<path d="M483.944 166.082H332.054C314.179 188.322 286.754 202.562 256 202.562C225.246 202.562 197.821 188.322 179.946 166.082H28.0555C17.0062 166.082 8.04944 175.038 8.04944 186.088V484.491C8.04944 495.54 17.0062 504.497 28.0555 504.497H483.944C494.994 504.497 503.951 495.54 503.951 484.491V186.088C503.951 175.038 494.994 166.082 483.944 166.082Z" fill="#FFF6BB"/>
<path d="M483.944 166.082H463.938C474.988 166.082 483.944 175.038 483.944 186.088V484.491C483.944 495.54 474.988 504.497 463.938 504.497H483.944C494.994 504.497 503.951 495.54 503.951 484.491V186.088C503.951 175.038 494.994 166.082 483.944 166.082Z" fill="#FFC472"/>
<path d="M256 202.562C309.864 202.562 353.53 158.896 353.53 105.032C353.53 51.1678 309.864 7.50227 256 7.50227C202.136 7.50227 158.47 51.1678 158.47 105.032C158.47 158.896 202.136 202.562 256 202.562Z" fill="#FF91A7"/>
<path d="M256 7.50227C252.623 7.50227 249.286 7.67433 245.997 8.00943C295.162 13.018 333.524 54.5446 333.524 105.032C333.524 155.519 295.162 197.046 245.997 202.055C249.286 202.39 252.623 202.562 256 202.562C309.864 202.562 353.53 158.896 353.53 105.032C353.53 51.1676 309.864 7.50227 256 7.50227Z" fill="#FF5377"/>
<path d="M8.04944 240.292V186.088C8.04944 175.038 17.0062 166.082 28.0555 166.082H179.937M503.951 360.579V484.492C503.951 495.541 494.994 504.498 483.944 504.498H28.0555C17.0062 504.498 8.04944 495.541 8.04944 484.492V256.047M333.023 166.082H483.944C494.994 166.082 503.951 175.038 503.951 186.088V345.856" stroke="black" stroke-width="15.0046" stroke-miterlimit="10"/>
<path d="M240.16 342.835L282.064 233.806L286.548 233.802L328.072 342.835M254.436 311.973H314.014M218.905 233.44H169.535V338.472H218.905M215.611 286.455H169.535M357.453 234.336L358.022 337.536M97.7097 292.168L140.262 340.516M82.5781 233.823V345.857M48.4227 479.56L67.7296 369.527H72.373L102.825 473.622H107.398L136.269 369.544L140.941 369.527L161.923 479.56M464.453 367.683H415.08V473.715H464.453M461.158 420.699H415.08M342.256 427.411L384.808 475.759M327.124 369.066V481.101M430.297 287.239C430.297 316.451 414.083 338.575 388.36 339.025C379.798 339.175 357.668 339.258 357.668 339.258C357.668 339.258 357.53 301.847 357.53 287.121C357.53 275.028 357.453 234.226 357.453 234.226H387.481C415.696 234.226 430.297 258.025 430.297 287.239ZM140.262 261.552C140.262 276.865 126.834 289.28 110.964 289.28C103.093 289.28 82.8092 289.402 82.8092 289.402C82.8092 289.402 82.6822 269.271 82.6822 261.552C82.6822 255.212 82.6111 233.823 82.6111 233.823H110.963C126.834 233.823 140.262 246.237 140.262 261.552ZM384.808 396.795C384.808 412.109 371.38 424.523 355.51 424.523C347.64 424.523 327.356 424.645 327.356 424.645C327.356 424.645 327.229 404.514 327.229 396.795C327.229 390.455 327.158 369.066 327.158 369.066H355.509C371.38 369.066 384.808 381.48 384.808 396.795Z" stroke="black" stroke-width="15.0046" stroke-miterlimit="10"/>
<path d="M244.193 474.134C273.197 474.134 296.709 450.622 296.709 421.618C296.709 392.615 273.197 369.102 244.193 369.102C215.19 369.102 191.677 392.615 191.677 421.618C191.677 450.622 215.19 474.134 244.193 474.134Z" stroke="black" stroke-width="15.0046" stroke-miterlimit="10"/>
<path d="M196.508 27.7424C212.972 15.0506 233.604 7.50227 256 7.50227C309.864 7.50227 353.53 51.1676 353.53 105.032C353.53 158.896 309.864 202.562 256 202.562C202.136 202.562 158.47 158.896 158.47 105.032C158.47 78.934 168.721 55.2298 185.415 37.7275M256 60.0183V150.046M301.014 105.032H210.986" stroke="black" stroke-width="15.0046" stroke-miterlimit="10"/>
</g>
<defs>
<clipPath id="clip0_2_2">
<rect width="512" height="512" fill="white"/>
</clipPath>
</defs>
</svg>
